<svg width="32" height="32" viewBox="0 0 32 32" fill="none" xmlns="http://www.w3.org/2000/svg">
<path d="M25.8381 7.75138C25.7444 7.74173 25.6499 7.74173 25.5562 7.75138H6.30624C6.18286 7.75328 6.0603 7.77178 5.94186 7.80638L15.8762 17.6995L25.8381 7.75138Z" fill="white"/>
<path d="M26.8556 8.70508L16.8455 18.6738C16.5879 18.9299 16.2394 19.0737 15.8762 19.0737C15.5129 19.0737 15.1644 18.9299 14.9068 18.6738L4.98617 8.7807C4.95568 8.89279 4.93951 9.0083 4.93805 9.12445V22.8745C4.93805 23.2391 5.08291 23.5889 5.34078 23.8467C5.59864 24.1046 5.94838 24.2495 6.31305 24.2495H25.563C25.9277 24.2495 26.2775 24.1046 26.5353 23.8467C26.7932 23.5889 26.938 23.2391 26.938 22.8745V9.12445C26.9326 8.98122 26.9047 8.83971 26.8556 8.70508ZM7.25492 22.8745H6.2993V21.8913L11.2974 16.9345L12.2668 17.9038L7.25492 22.8745ZM25.5493 22.8745H24.5868L19.5749 17.9038L20.5443 16.9345L25.5424 21.8913L25.5493 22.8745Z" fill="white"/>
</svg>
