<svg width="22" height="22" viewBox="0 0 22 22" fill="none" xmlns="http://www.w3.org/2000/svg">
<g clip-path="url(#clip0_1193_335)">
<path d="M22 3.59863C22 4.07129 21.9105 4.52962 21.7314 4.97363C21.5524 5.41764 21.291 5.81152 20.9473 6.15527L6.7998 20.3027L0 22L1.69727 15.2002L15.8447 1.05273C16.1885 0.708984 16.5824 0.447591 17.0264 0.268555C17.4704 0.0895182 17.9287 0 18.4014 0C18.8955 0 19.361 0.093099 19.7979 0.279297C20.2347 0.465495 20.6143 0.723307 20.9365 1.05273C21.2588 1.38216 21.5166 1.7653 21.71 2.20215C21.9033 2.639 22 3.10449 22 3.59863ZM3.50195 15.3398C4.26107 15.5905 4.91276 15.988 5.45703 16.5322C6.0013 17.0765 6.40234 17.7318 6.66016 18.498L18.2725 6.875L15.125 3.72754L3.50195 15.3398ZM1.89062 20.1094L5.4248 19.2285C5.35319 18.8991 5.23861 18.5876 5.08105 18.2939C4.9235 18.0003 4.72656 17.7389 4.49023 17.5098C4.25391 17.2806 3.99251 17.0872 3.70605 16.9297C3.4196 16.7721 3.10807 16.654 2.77148 16.5752L1.89062 20.1094ZM19.25 5.89746C19.429 5.71842 19.6009 5.55013 19.7656 5.39258C19.9303 5.23503 20.0771 5.07031 20.2061 4.89844C20.335 4.72656 20.4352 4.53678 20.5068 4.3291C20.5785 4.12142 20.6178 3.88151 20.625 3.60938C20.625 3.30143 20.5677 3.01497 20.4531 2.75C20.3385 2.48503 20.1774 2.2487 19.9697 2.04102C19.762 1.83333 19.5257 1.6722 19.2607 1.55762C18.9958 1.44303 18.7057 1.38216 18.3906 1.375C18.1185 1.375 17.8822 1.41081 17.6816 1.48242C17.4811 1.55404 17.2913 1.65788 17.1123 1.79395C16.9333 1.93001 16.765 2.07682 16.6074 2.23438C16.4499 2.39193 16.2816 2.5638 16.1025 2.75L19.25 5.89746Z" fill="black"/>
</g>
<defs>
<clipPath id="clip0_1193_335">
<rect width="22" height="22" fill="white"/>
</clipPath>
</defs>
</svg>
