<svg width="94" height="46" viewBox="0 0 94 46" fill="none" xmlns="http://www.w3.org/2000/svg">
<path d="M0.500488 8.00098C0.500488 3.5827 4.08221 0.000976562 8.50049 0.000976562H85.5005C89.9188 0.000976562 93.5005 3.5827 93.5005 8.00098V32.001C93.5005 36.4193 89.9188 40.001 85.5005 40.001H8.50049C4.08221 40.001 0.500488 36.4193 0.500488 32.001V8.00098Z" fill="#374151"/>
<path d="M63.5005 40.001H31.5005C33.3141 40.001 34.2209 40.001 35.11 40.1178C37.0166 40.3684 38.8802 41.0193 40.6301 42.0458C41.4462 42.5245 42.2335 43.1162 43.8082 44.2995C44.8019 45.0463 45.2987 45.4197 45.8089 45.642C46.9073 46.1206 48.0937 46.1206 49.192 45.642C49.7022 45.4197 50.1991 45.0463 51.1928 44.2995C52.7674 43.1162 53.5548 42.5245 54.3708 42.0458C56.1207 41.0193 57.9844 40.3684 59.8909 40.1178C60.7801 40.001 61.6869 40.001 63.5005 40.001Z" fill="#374151"/>
<path d="M14.0685 25.001V15.201H15.3285V21.361C15.3285 21.977 15.2585 22.747 15.1885 23.489C15.4825 22.915 15.8185 22.341 16.1825 21.795L20.6625 15.201H21.9785V25.001H20.7185V18.925C20.7185 18.295 20.7745 17.469 20.8585 16.671C20.5225 17.301 20.1725 17.945 19.8785 18.379L15.3845 25.001H14.0685ZM24.3874 24.707V23.279C24.8774 23.671 25.7874 24.105 26.9774 24.105C28.1114 24.105 28.6854 23.741 28.6854 22.803C28.6854 21.977 28.2094 21.725 26.6554 21.725H25.6894V20.801H26.8094C27.8734 20.801 28.3214 20.395 28.3214 19.583C28.3214 18.827 27.9994 18.477 26.8094 18.477C25.7174 18.477 25.1014 18.799 24.5274 19.247V17.889C25.0454 17.665 25.6754 17.441 27.0194 17.441C28.8534 17.441 29.4974 18.127 29.4974 19.247C29.4974 20.283 29.2454 20.871 28.3214 21.137C29.2314 21.193 29.8474 21.725 29.8474 22.733C29.8474 24.413 28.9514 25.155 26.6414 25.155C25.9694 25.155 24.9474 24.987 24.3874 24.707ZM32.0281 25.001V17.581H33.5681L35.9201 21.991L38.1741 17.581H39.6441V25.001H38.4821V21.095C38.4821 20.269 38.5801 19.429 38.6501 18.589C38.2161 19.527 37.8521 20.409 37.5301 20.969L36.2421 23.209H35.4441L34.2261 20.983C33.9041 20.395 33.4841 19.527 33.0361 18.603C33.1061 19.443 33.1901 20.297 33.1901 21.151V25.001H32.0281ZM48.3007 21.711H43.0087C43.0087 23.307 43.8627 24.105 45.4867 24.105C46.4247 24.105 47.2087 23.727 47.7547 23.293V24.497C47.3907 24.763 46.5647 25.155 45.4587 25.155C43.0647 25.155 41.8327 24.035 41.8327 21.179C41.8327 18.757 43.0087 17.441 45.1787 17.441C47.4747 17.441 48.3007 18.855 48.3007 20.955V21.711ZM45.1647 18.491C43.8067 18.491 43.0087 19.191 43.0087 20.703H47.1387C47.1387 19.191 46.5367 18.491 45.1647 18.491ZM50.4851 25.001V17.581H51.6471V20.689H55.3431V17.581H56.5051V25.001H55.3431V21.795H51.6471V25.001H50.4851ZM59.1941 25.001V17.581H60.3561V21.193C60.3561 22.061 60.3141 22.985 60.2721 23.349L60.3281 23.377C60.6781 22.775 61.0841 22.215 61.4901 21.655L64.3041 17.581H65.3261V25.001H64.1641V22.005C64.1641 20.927 64.2061 19.709 64.2481 19.191L64.2061 19.177C63.9681 19.611 63.5341 20.325 63.1141 20.885L60.2301 25.001H59.1941ZM69.3285 25.001V18.673H66.9205V17.581H72.8845V18.673H70.4905V25.001H69.3285ZM74.4793 25.001V17.581H75.6413V20.031C76.0613 19.989 76.4813 19.975 77.0273 19.975C79.1693 19.975 80.1633 20.563 80.1633 22.411C80.1633 24.203 79.2953 25.099 76.7613 25.099C75.8653 25.099 74.9973 25.057 74.4793 25.001ZM75.6413 23.993C76.0193 24.049 76.2993 24.049 76.9713 24.049C78.5253 24.049 79.0013 23.629 79.0013 22.453C79.0013 21.347 78.5813 20.927 76.5793 20.927C76.2853 20.927 75.9913 20.955 75.6413 20.997V23.993Z" fill="white"/>
</svg>
