<svg width="22" height="22" viewBox="0 0 22 22" fill="none" xmlns="http://www.w3.org/2000/svg">
<path d="M11.6527 21.4395L11.6406 21.4416L11.5625 21.4768L11.5405 21.4809L11.5251 21.4768L11.447 21.4416C11.4353 21.4382 11.4265 21.4399 11.4206 21.4466L11.4162 21.4567L11.3975 21.8882L11.403 21.9084L11.414 21.9215L11.5284 21.9961L11.5449 22.0001L11.5581 21.9961L11.6725 21.9215L11.6857 21.9053L11.6901 21.8882L11.6714 21.4577C11.6685 21.4469 11.6622 21.4409 11.6527 21.4395ZM11.9442 21.3256L11.9299 21.3276L11.7264 21.4214L11.7154 21.4315L11.7121 21.4426L11.7319 21.8761L11.7374 21.8882L11.7462 21.8953L11.9673 21.989C11.9812 21.9924 11.9919 21.9897 11.9992 21.981L12.0036 21.9668L11.9662 21.3478C11.9625 21.3357 11.9552 21.3283 11.9442 21.3256ZM11.1577 21.3276C11.1528 21.3249 11.147 21.3241 11.1415 21.3252C11.136 21.3263 11.1311 21.3294 11.128 21.3337L11.1214 21.3478L11.084 21.9668C11.0847 21.9789 11.091 21.987 11.1027 21.991L11.1192 21.989L11.3403 21.8953L11.3513 21.8872L11.3557 21.8761L11.3744 21.4426L11.3711 21.4305L11.3601 21.4204L11.1577 21.3276Z" fill="#4244BC"/>
<path d="M11 0C17.0753 0 22 4.9247 22 11C22 17.0753 17.0753 22 11 22C4.9247 22 0 17.0753 0 11C0 4.9247 4.9247 0 11 0ZM11 14.3C10.7083 14.3 10.4285 14.4159 10.2222 14.6222C10.0159 14.8285 9.9 15.1083 9.9 15.4C9.9 15.6917 10.0159 15.9715 10.2222 16.1778C10.4285 16.3841 10.7083 16.5 11 16.5C11.2917 16.5 11.5715 16.3841 11.7778 16.1778C11.9841 15.9715 12.1 15.6917 12.1 15.4C12.1 15.1083 11.9841 14.8285 11.7778 14.6222C11.5715 14.4159 11.2917 14.3 11 14.3ZM11 4.4C10.7306 4.40004 10.4705 4.49895 10.2692 4.67799C10.0679 4.85702 9.93922 5.10372 9.9077 5.3713L9.9 5.5V12.1C9.90031 12.3804 10.0077 12.65 10.2001 12.8539C10.3926 13.0578 10.6556 13.1805 10.9355 13.1969C11.2154 13.2133 11.491 13.1223 11.706 12.9423C11.921 12.7624 12.0592 12.5071 12.0923 12.2287L12.1 12.1V5.5C12.1 5.20826 11.9841 4.92847 11.7778 4.72218C11.5715 4.51589 11.2917 4.4 11 4.4Z" fill="#4244BC"/>
</svg>
