<svg width="422" height="76" viewBox="0 0 422 76" fill="none" xmlns="http://www.w3.org/2000/svg">
<path fill-rule="evenodd" clip-rule="evenodd" d="M389.797 0C393.712 0 396.867 3.21155 396.796 7.12633L395.928 55.2306C395.928 55.5252 395.923 55.8183 395.913 56.11C395.806 62.9998 396.144 67.465 396.924 69.5064C397.65 71.4017 399.189 73.2334 401.543 75.0018L401.902 75.2666C401.997 75.3353 402.028 75.4852 401.972 75.6013C401.94 75.6683 401.883 75.7124 401.819 75.72C396.845 76.3111 392.761 74.8811 389.569 71.43C386.658 74.2889 382.959 76 378.932 76L210.994 75.9444C201.055 75.9411 193 67.8832 193 57.9444V18C193 8.05887 201.059 0 211 0H389.797Z" fill="#595EF6"/>
<circle cx="228" cy="35.5" r="23" fill="white"/>
<path d="M224.341 45.7992C223.494 46.2885 222.435 45.6769 222.435 44.6984L222.435 27.971C222.435 26.9924 223.494 26.3809 224.341 26.8701L238.828 35.2338C239.675 35.7231 239.675 36.9463 238.828 37.4355L224.341 45.7992Z" fill="#595EF6"/>
<rect x="265" y="35" width="2" height="2" rx="1" fill="white" fill-opacity="0.81"/>
<rect x="269" y="33" width="2" height="4" rx="1" fill="white" fill-opacity="0.81"/>
<rect x="273" y="27" width="2" height="10" rx="1" fill="white" fill-opacity="0.81"/>
<rect x="277" y="26" width="2" height="11" rx="1" fill="white" fill-opacity="0.81"/>
<rect x="281" y="20" width="2" height="17" rx="1" fill="white" fill-opacity="0.81"/>
<rect x="285" y="20" width="2" height="17" rx="1" fill="white" fill-opacity="0.81"/>
<rect x="289" y="20" width="2" height="17" rx="1" fill="white" fill-opacity="0.81"/>
<rect x="293" y="20" width="2" height="17" rx="1" fill="white" fill-opacity="0.81"/>
<rect x="297" y="22" width="2" height="15" rx="1" fill="white" fill-opacity="0.81"/>
<rect x="301" y="23" width="2" height="14" rx="1" fill="white" fill-opacity="0.81"/>
<rect x="305" y="20" width="2" height="17" rx="1" fill="white" fill-opacity="0.81"/>
<rect x="309" y="20" width="2" height="17" rx="1" fill="white" fill-opacity="0.81"/>
<rect x="313" y="20" width="2" height="17" rx="1" fill="white" fill-opacity="0.81"/>
<rect x="317" y="27" width="2" height="10" rx="1" fill="white" fill-opacity="0.81"/>
<rect x="321" y="23" width="2" height="14" rx="1" fill="white" fill-opacity="0.81"/>
<rect x="325" y="22" width="2" height="15" rx="1" fill="white" fill-opacity="0.81"/>
<rect x="329" y="22" width="2" height="15" rx="1" fill="white" fill-opacity="0.81"/>
<rect x="333" y="24" width="2" height="13" rx="1" fill="white" fill-opacity="0.81"/>
<rect x="337" y="24" width="2" height="13" rx="1" fill="white" fill-opacity="0.81"/>
<rect x="341" y="23" width="2" height="14" rx="1" fill="white" fill-opacity="0.81"/>
<rect x="345" y="27" width="2" height="10" rx="1" fill="white" fill-opacity="0.81"/>
<rect x="349" y="27" width="2" height="10" rx="1" fill="white" fill-opacity="0.81"/>
<rect x="353" y="28" width="2" height="9" rx="1" fill="white" fill-opacity="0.81"/>
<rect x="357" y="27" width="2" height="10" rx="1" fill="white" fill-opacity="0.81"/>
<rect x="361" y="28" width="2" height="9" rx="1" fill="white" fill-opacity="0.81"/>
<rect x="365" y="33" width="2" height="4" rx="1" fill="white" fill-opacity="0.81"/>
<rect x="369" y="33" width="2" height="4" rx="1" fill="white" fill-opacity="0.81"/>
<rect x="373" y="35" width="2" height="2" rx="1" fill="white" fill-opacity="0.81"/>
<path d="M268.34 50.08C267.793 50.08 267.303 49.94 266.87 49.66C266.443 49.38 266.103 48.9733 265.85 48.44C265.603 47.9067 265.48 47.26 265.48 46.5C265.48 45.74 265.603 45.0933 265.85 44.56C266.103 44.0267 266.443 43.62 266.87 43.34C267.303 43.06 267.793 42.92 268.34 42.92C268.88 42.92 269.367 43.06 269.8 43.34C270.233 43.62 270.573 44.0267 270.82 44.56C271.067 45.0933 271.19 45.74 271.19 46.5C271.19 47.26 271.067 47.9067 270.82 48.44C270.573 48.9733 270.233 49.38 269.8 49.66C269.367 49.94 268.88 50.08 268.34 50.08ZM268.34 49.19C268.707 49.19 269.027 49.09 269.3 48.89C269.58 48.69 269.797 48.39 269.95 47.99C270.11 47.59 270.19 47.0933 270.19 46.5C270.19 45.9067 270.11 45.41 269.95 45.01C269.797 44.61 269.58 44.31 269.3 44.11C269.027 43.91 268.707 43.81 268.34 43.81C267.973 43.81 267.65 43.91 267.37 44.11C267.09 44.31 266.87 44.61 266.71 45.01C266.557 45.41 266.48 45.9067 266.48 46.5C266.48 47.0933 266.557 47.59 266.71 47.99C266.87 48.39 267.09 48.69 267.37 48.89C267.65 49.09 267.973 49.19 268.34 49.19ZM275.51 50.08C274.963 50.08 274.473 49.94 274.04 49.66C273.613 49.38 273.273 48.9733 273.02 48.44C272.773 47.9067 272.65 47.26 272.65 46.5C272.65 45.74 272.773 45.0933 273.02 44.56C273.273 44.0267 273.613 43.62 274.04 43.34C274.473 43.06 274.963 42.92 275.51 42.92C276.05 42.92 276.537 43.06 276.97 43.34C277.403 43.62 277.743 44.0267 277.99 44.56C278.237 45.0933 278.36 45.74 278.36 46.5C278.36 47.26 278.237 47.9067 277.99 48.44C277.743 48.9733 277.403 49.38 276.97 49.66C276.537 49.94 276.05 50.08 275.51 50.08ZM275.51 49.19C275.877 49.19 276.197 49.09 276.47 48.89C276.75 48.69 276.967 48.39 277.12 47.99C277.28 47.59 277.36 47.0933 277.36 46.5C277.36 45.9067 277.28 45.41 277.12 45.01C276.967 44.61 276.75 44.31 276.47 44.11C276.197 43.91 275.877 43.81 275.51 43.81C275.143 43.81 274.82 43.91 274.54 44.11C274.26 44.31 274.04 44.61 273.88 45.01C273.727 45.41 273.65 45.9067 273.65 46.5C273.65 47.0933 273.727 47.59 273.88 47.99C274.04 48.39 274.26 48.69 274.54 48.89C274.82 49.09 275.143 49.19 275.51 49.19ZM280.48 46.02C280.293 46.02 280.133 45.9567 280 45.83C279.867 45.6967 279.8 45.53 279.8 45.33C279.8 45.13 279.867 44.9667 280 44.84C280.133 44.7133 280.293 44.65 280.48 44.65C280.66 44.65 280.813 44.7133 280.94 44.84C281.073 44.9667 281.14 45.13 281.14 45.33C281.14 45.53 281.073 45.6967 280.94 45.83C280.813 45.9567 280.66 46.02 280.48 46.02ZM280.48 50.06C280.293 50.06 280.133 49.9967 280 49.87C279.867 49.7367 279.8 49.57 279.8 49.37C279.8 49.17 279.867 49.0067 280 48.88C280.133 48.7533 280.293 48.69 280.48 48.69C280.66 48.69 280.813 48.7533 280.94 48.88C281.073 49.0067 281.14 49.17 281.14 49.37C281.14 49.57 281.073 49.7367 280.94 49.87C280.813 49.9967 280.66 50.06 280.48 50.06ZM283.765 50V43.4L284.195 43.87H282.185V43H284.755V50H283.765ZM286.677 50V49.32L289.527 46.57C289.78 46.33 289.967 46.12 290.087 45.94C290.213 45.7533 290.297 45.5833 290.337 45.43C290.383 45.27 290.407 45.1167 290.407 44.97C290.407 44.61 290.28 44.3267 290.027 44.12C289.773 43.9133 289.403 43.81 288.917 43.81C288.543 43.81 288.207 43.8733 287.907 44C287.607 44.12 287.347 44.31 287.127 44.57L286.447 43.98C286.713 43.64 287.07 43.38 287.517 43.2C287.97 43.0133 288.467 42.92 289.007 42.92C289.493 42.92 289.917 43 290.277 43.16C290.637 43.3133 290.913 43.5367 291.107 43.83C291.307 44.1233 291.407 44.47 291.407 44.87C291.407 45.0967 291.377 45.32 291.317 45.54C291.257 45.76 291.143 45.9933 290.977 46.24C290.81 46.4867 290.57 46.7633 290.257 47.07L287.717 49.52L287.477 49.13H291.707V50H286.677Z" fill="white" fill-opacity="0.5"/>
<circle cx="298.5" cy="46" r="1.5" fill="white" fill-opacity="0.68"/>
<path d="M346.66 69V62.4L347.09 62.87H345.08V62H347.65V69H346.66ZM351.821 69.08C351.328 69.08 350.848 69.0033 350.381 68.85C349.921 68.6967 349.545 68.49 349.251 68.23L349.711 67.44C349.945 67.66 350.248 67.84 350.621 67.98C350.995 68.12 351.395 68.19 351.821 68.19C352.341 68.19 352.745 68.08 353.031 67.86C353.325 67.6333 353.471 67.33 353.471 66.95C353.471 66.5833 353.331 66.29 353.051 66.07C352.778 65.8433 352.341 65.73 351.741 65.73H351.181V65.03L353.261 62.47L353.401 62.87H349.571V62H354.191V62.68L352.121 65.23L351.601 64.92H351.931C352.778 64.92 353.411 65.11 353.831 65.49C354.258 65.87 354.471 66.3533 354.471 66.94C354.471 67.3333 354.375 67.6933 354.181 68.02C353.988 68.3467 353.695 68.6067 353.301 68.8C352.915 68.9867 352.421 69.08 351.821 69.08ZM356.564 65.02C356.377 65.02 356.217 64.9567 356.084 64.83C355.95 64.6967 355.884 64.53 355.884 64.33C355.884 64.13 355.95 63.9667 356.084 63.84C356.217 63.7133 356.377 63.65 356.564 63.65C356.744 63.65 356.897 63.7133 357.024 63.84C357.157 63.9667 357.224 64.13 357.224 64.33C357.224 64.53 357.157 64.6967 357.024 64.83C356.897 64.9567 356.744 65.02 356.564 65.02ZM356.564 69.06C356.377 69.06 356.217 68.9967 356.084 68.87C355.95 68.7367 355.884 68.57 355.884 68.37C355.884 68.17 355.95 68.0067 356.084 67.88C356.217 67.7533 356.377 67.69 356.564 67.69C356.744 67.69 356.897 67.7533 357.024 67.88C357.157 68.0067 357.224 68.17 357.224 68.37C357.224 68.57 357.157 68.7367 357.024 68.87C356.897 68.9967 356.744 69.06 356.564 69.06ZM360.809 69.08C360.316 69.08 359.836 69.0033 359.369 68.85C358.909 68.6967 358.533 68.49 358.239 68.23L358.699 67.44C358.933 67.66 359.236 67.84 359.609 67.98C359.983 68.12 360.383 68.19 360.809 68.19C361.329 68.19 361.733 68.08 362.019 67.86C362.313 67.6333 362.459 67.33 362.459 66.95C362.459 66.5833 362.319 66.29 362.039 66.07C361.766 65.8433 361.329 65.73 360.729 65.73H360.169V65.03L362.249 62.47L362.389 62.87H358.559V62H363.179V62.68L361.109 65.23L360.589 64.92H360.919C361.766 64.92 362.399 65.11 362.819 65.49C363.246 65.87 363.459 66.3533 363.459 66.94C363.459 67.3333 363.363 67.6933 363.169 68.02C362.976 68.3467 362.683 68.6067 362.289 68.8C361.903 68.9867 361.409 69.08 360.809 69.08ZM367.054 69.08C366.561 69.08 366.081 69.0033 365.614 68.85C365.154 68.6967 364.778 68.49 364.484 68.23L364.944 67.44C365.178 67.66 365.481 67.84 365.854 67.98C366.228 68.12 366.624 68.19 367.044 68.19C367.578 68.19 367.988 68.0767 368.274 67.85C368.561 67.6233 368.704 67.32 368.704 66.94C368.704 66.68 368.641 66.4533 368.514 66.26C368.388 66.0667 368.168 65.92 367.854 65.82C367.548 65.7133 367.124 65.66 366.584 65.66H364.994L365.364 62H369.314V62.87H365.734L366.254 62.38L365.964 65.27L365.444 64.79H366.794C367.494 64.79 368.058 64.88 368.484 65.06C368.911 65.24 369.221 65.49 369.414 65.81C369.608 66.1233 369.704 66.4867 369.704 66.9C369.704 67.3 369.608 67.6667 369.414 68C369.221 68.3267 368.928 68.59 368.534 68.79C368.148 68.9833 367.654 69.08 367.054 69.08Z" fill="white" fill-opacity="0.5"/>
<path fill-rule="evenodd" clip-rule="evenodd" d="M388.134 61.2039L381.634 68.1243L381.578 68.1948C381.451 68.3923 381.48 68.6578 381.66 68.8229C381.862 69.0087 382.178 68.9971 382.366 68.797L388.866 61.8766L388.922 61.806C389.049 61.6086 389.02 61.3431 388.84 61.178C388.638 60.9922 388.322 61.0038 388.134 61.2039ZM384.635 61.2022L378.436 67.7408L375.862 65.0681L375.794 65.0092C375.603 64.871 375.333 64.8835 375.155 65.0508C374.955 65.2391 374.947 65.552 375.138 65.7497L378.076 68.8015L378.147 68.8624C378.347 69.0044 378.629 68.983 378.803 68.7987L385.365 61.8783L385.42 61.808C385.549 61.6111 385.521 61.3455 385.342 61.1796C385.14 60.9929 384.824 61.003 384.635 61.2022Z" fill="white"/>
</svg>
