<svg width="1920" height="318" viewBox="0 0 1920 318" fill="none" xmlns="http://www.w3.org/2000/svg">
<rect width="2400" height="76" transform="translate(-221.346) rotate(5.78021)" fill="#6668FA"/>
<path d="M-200.365 28.6589L-200.797 32.9172L-209.87 31.9987C-211.435 31.8402 -212.349 32.525 -212.611 34.0531C-212.947 35.788 -213.257 37.3916 -213.54 38.8639C-213.821 40.3097 -214.115 41.6334 -214.425 42.8351C-214.734 44.0367 -215.06 45.1428 -215.404 46.1533C-215.718 47.14 -216.091 48.0404 -216.522 48.8545C-217.243 50.4165 -218.088 51.6174 -219.057 52.4574C-220.027 53.2974 -221.113 53.8307 -222.315 54.0575C-223.515 54.2577 -224.823 54.2057 -226.239 53.9014L-226.202 49.1611C-225.307 49.064 -224.51 48.8633 -223.809 48.559C-223.105 48.2282 -222.505 47.5921 -222.007 46.6508C-221.71 46.0913 -221.436 45.5025 -221.185 44.8846C-220.933 44.2401 -220.701 43.5399 -220.49 42.7839C-220.251 42.0041 -220.028 41.1287 -219.822 40.1578C-219.59 39.1896 -219.361 38.1139 -219.134 36.9307C-218.904 35.7211 -218.647 34.3668 -218.361 32.8679C-217.666 28.9178 -215.342 27.1429 -211.389 27.543L-200.365 28.6589ZM-199.769 28.7193L-202.548 56.179L-208.637 55.5626L-205.857 28.103L-199.769 28.7193ZM-171.407 31.5903L-174.187 59.05L-179.997 58.4618L-178.345 42.1452C-178.283 41.535 -178.195 40.9275 -178.08 40.3226C-177.963 39.6912 -177.82 39.0758 -177.652 38.4763L-177.891 38.4522C-178.168 39.0674 -178.47 39.6667 -178.797 40.2501C-179.121 40.8069 -179.459 41.3624 -179.81 41.9166L-190.901 57.358L-196.831 56.7578L-194.051 29.2981L-188.241 29.8863L-189.86 45.8845C-189.922 46.4947 -190.026 47.1274 -190.173 47.7826C-190.291 48.414 -190.423 49.0573 -190.569 49.7125L-190.37 49.7327C-190.067 49.1201 -189.752 48.5221 -189.425 47.9388C-189.071 47.3581 -188.707 46.8053 -188.332 46.2804L-177.337 30.9901L-171.407 31.5903ZM-143.633 34.4018L-146.413 61.8614L-152.502 61.2451L-150.153 38.0436L-153.775 37.677C-154.544 37.5992 -155.133 37.7271 -155.542 38.061C-155.951 38.3948 -156.224 38.9703 -156.36 39.7874C-156.721 41.7611 -157.089 43.5464 -157.465 45.1433C-157.841 46.7402 -158.258 48.2124 -158.716 49.5598C-159.145 50.8833 -159.647 52.1325 -160.222 53.3072C-160.767 54.4582 -161.404 55.5864 -162.132 56.692C-162.858 57.7711 -163.694 58.8792 -164.64 60.0164L-169.773 59.4967C-168.266 57.3174 -167.02 55.0715 -166.036 52.7589C-165.049 50.4197 -164.231 48.0366 -163.583 45.6095C-162.933 43.1559 -162.389 40.6915 -161.951 38.2164C-161.649 36.5583 -160.901 35.267 -159.709 34.3424C-158.49 33.4205 -156.978 33.0509 -155.174 33.2335L-143.633 34.4018ZM-165.805 59.6169L-166.919 65.8565L-171.297 65.4133L-170.661 59.1255L-165.805 59.6169ZM-142.4 57.9658L-142.831 62.224L-170.689 59.404L-170.258 55.1458L-142.4 57.9658ZM-142.803 61.9454L-143.439 68.2333L-147.777 67.7942L-147.618 61.458L-142.803 61.9454ZM-123.286 36.4615C-122.782 36.5125 -122.359 36.7027 -122.017 37.0322C-121.649 37.3643 -121.422 37.7758 -121.338 38.2668L-115.997 64.9403L-122.205 64.3119L-125.774 43.567C-125.835 43.1052 -125.895 42.6434 -125.956 42.1817C-126.013 41.6934 -126.061 41.2329 -126.097 40.8004L-127.172 40.6916C-127.294 41.1081 -127.433 41.5497 -127.587 42.0165C-127.713 42.4595 -127.864 42.8998 -128.043 43.3374L-135.696 62.9462L-141.944 62.3138L-131.327 37.2557C-131.146 36.7916 -130.855 36.4324 -130.454 36.1781C-130.026 35.9266 -129.561 35.8263 -129.056 35.8773L-123.286 36.4615ZM-120.651 52.5286L-121.114 57.1052L-135.361 55.663L-134.898 51.0864L-120.651 52.5286ZM-79.0663 40.9377L-81.8459 68.3974L-87.6563 67.8092L-86.0046 51.4926C-85.9428 50.8824 -85.8545 50.2748 -85.7397 49.67C-85.6221 49.0386 -85.4794 48.4232 -85.3115 47.8237L-85.5503 47.7996C-85.827 48.4148 -86.1289 49.0141 -86.456 49.5975C-86.7804 50.1543 -87.1181 50.7098 -87.469 51.2639L-98.5605 66.7054L-104.49 66.1051L-101.711 38.6455L-95.9003 39.2336L-97.5197 55.2319C-97.5815 55.8421 -97.6857 56.4748 -97.8325 57.13C-97.95 57.7614 -98.0821 58.4047 -98.2288 59.0599L-98.0299 59.0801C-97.7266 58.4675 -97.4115 57.8695 -97.0844 57.2862C-96.7308 56.7055 -96.3666 56.1527 -95.9918 55.6278L-84.996 40.3374L-79.0663 40.9377ZM-52.5661 43.6202L-52.9971 47.8785L-62.0708 46.96C-63.6361 46.8015 -64.5497 47.4863 -64.8116 49.0144C-65.148 50.7493 -65.4578 52.3529 -65.7408 53.8253C-66.0212 55.271 -66.316 56.5947 -66.6253 57.7964C-66.9345 58.998 -67.2609 60.1041 -67.6045 61.1146C-67.9188 62.1013 -68.2913 63.0017 -68.7222 63.8158C-69.4432 65.3778 -70.2884 66.5788 -71.2579 67.4187C-72.2275 68.2587 -73.3134 68.792 -74.5156 69.0188C-75.7152 69.219 -77.0233 69.167 -78.4399 68.8628L-78.4023 64.1225C-77.508 64.0254 -76.7104 63.8247 -76.0095 63.5204C-75.3059 63.1896 -74.7055 62.5535 -74.2081 61.6121C-73.9103 61.0526 -73.6362 60.4638 -73.3861 59.8459C-73.1332 59.2014 -72.9015 58.5012 -72.691 57.7452C-72.4512 56.9654 -72.2286 56.09 -72.0231 55.1191C-71.7911 54.1509 -71.5616 53.0752 -71.3346 51.8921C-71.1049 50.6824 -70.8472 49.3281 -70.5615 47.8293C-69.8668 43.8792 -67.5429 42.1042 -63.5897 42.5043L-52.5661 43.6202ZM-51.9691 43.6807L-54.7488 71.1403L-60.8377 70.524L-58.058 43.0643L-51.9691 43.6807ZM-23.6075 46.5516L-26.3872 74.0113L-32.1975 73.4231L-30.5458 57.1065C-30.484 56.4963 -30.3957 55.8888 -30.2809 55.2839C-30.1634 54.6526 -30.0207 54.0371 -29.8528 53.4377L-30.0916 53.4135C-30.3683 54.0288 -30.6702 54.6281 -30.9972 55.2114C-31.3216 55.7683 -31.6593 56.3237 -32.0102 56.8779L-43.1018 72.3193L-49.0315 71.7191L-46.2518 44.2594L-40.4415 44.8476L-42.0609 60.8458C-42.1227 61.456 -42.227 62.0888 -42.3737 62.744C-42.4912 63.3753 -42.6233 64.0186 -42.7701 64.6739L-42.5711 64.694C-42.2679 64.0814 -41.9527 63.4835 -41.6256 62.9001C-41.272 62.3194 -40.9078 61.7666 -40.533 61.2417L-29.5372 45.9514L-23.6075 46.5516ZM12.7551 50.2325L9.97543 77.6922L3.88655 77.0758L6.23516 53.8744L2.61367 53.5078C1.84427 53.4299 1.25505 53.5579 0.846016 53.8917C0.436982 54.2256 0.164305 54.801 0.0279875 55.6181C-0.332624 57.5918 -0.700968 59.3772 -1.07704 60.9741C-1.45312 62.571 -1.87017 64.0431 -2.3282 65.3905C-2.75701 66.7141 -3.2587 67.9632 -3.83327 69.138C-4.37862 70.2889 -5.01549 71.4172 -5.74387 72.5228C-6.46957 73.6018 -7.30542 74.71 -8.25142 75.8471L-13.3852 75.3275C-11.878 73.1482 -10.6322 70.9022 -9.6476 68.5896C-8.66033 66.2505 -7.84283 63.8674 -7.1951 61.4403C-6.54468 58.9866 -6.00039 56.5223 -5.56222 54.0471C-5.26036 52.3891 -4.51318 51.0978 -3.32067 50.1732C-2.10162 49.2513 -0.590038 48.8816 1.21408 49.0643L12.7551 50.2325ZM-9.41712 75.4477L-10.5312 81.6872L-14.9088 81.2441L-14.2723 74.9562L-9.41712 75.4477ZM13.9882 73.7965L13.5571 78.0548L-14.3005 75.2348L-13.8695 70.9766L13.9882 73.7965ZM13.5853 77.7762L12.9488 84.064L8.61099 83.6249L8.76993 77.2887L13.5853 77.7762ZM33.1024 52.2922C33.6065 52.3432 34.0294 52.5335 34.3713 52.8629C34.7398 53.1951 34.9661 53.6066 35.0504 54.0976L40.3912 80.7711L34.183 80.1427L30.6141 59.3977C30.5536 58.936 30.4932 58.4742 30.4327 58.0124C30.3749 57.5241 30.3277 57.0637 30.2911 56.6311L29.2166 56.5224C29.094 56.9388 28.9555 57.3805 28.801 57.8473C28.6758 58.2902 28.524 58.7305 28.3457 59.1681L20.6919 78.777L14.4438 78.1445L25.0615 53.0864C25.2425 52.6223 25.5335 52.2631 25.9345 52.0089C26.362 51.7573 26.8278 51.6571 27.3319 51.7081L33.1024 52.2922ZM35.7376 68.3593L35.2743 72.9359L21.0271 71.4937L21.4904 66.9171L35.7376 68.3593Z" fill="white"/>
<circle cx="83.2509" cy="69.0281" r="7" transform="rotate(5.78021 83.2509 69.0281)" fill="#6668FA" stroke="white" stroke-width="6"/>
<path d="M127.527 61.3681C128.695 61.4862 129.687 61.6135 130.504 61.7498C131.348 61.8888 132.108 62.0596 132.784 62.262C133.49 62.4407 134.205 62.6604 134.929 62.9214L134.301 65.5515C133.513 65.3913 132.777 65.2498 132.092 65.1269C131.434 65.0067 130.722 64.8944 129.955 64.79C129.188 64.6856 128.274 64.5796 127.213 64.4722C125.436 64.2923 123.995 64.4948 122.89 65.0799C121.786 65.665 120.926 66.7439 120.311 68.3166C119.723 69.892 119.287 72.0726 119.005 74.8584C118.723 77.6442 118.713 79.8677 118.974 81.5291C119.261 83.1931 119.887 84.4224 120.852 85.217C121.817 86.0115 123.188 86.4988 124.965 86.6787C126.663 86.8506 128.085 86.9678 129.232 87.0302C130.407 87.0688 131.56 87.0649 132.69 87.0185L132.783 89.6813C131.61 89.8842 130.406 89.9902 129.172 89.9993C127.962 90.0376 126.455 89.9655 124.651 89.7829C122.025 89.517 119.961 88.8524 118.46 87.7892C116.989 86.7022 116 85.0877 115.493 82.9458C115.013 80.8065 114.95 77.9858 115.304 74.4837C115.659 70.9816 116.286 68.2308 117.185 66.2312C118.111 64.2343 119.402 62.864 121.059 62.1204C122.745 61.353 124.901 61.1022 127.527 61.3681ZM166.373 65.7827C167.328 65.8794 167.756 66.4186 167.656 67.4002L166.18 93.5043L162.678 93.1498L164.169 68.4945L163.333 68.4099L155.154 88.046C154.861 88.8205 154.316 89.1674 153.52 89.0868L150.377 88.7686C149.554 88.6853 149.064 88.2336 148.906 87.4135L144.827 66.5367L144.031 66.4561L140.591 90.9139L137.089 90.5594L140.794 64.681C140.946 63.7047 141.487 63.2636 142.415 63.3576L146.395 63.7604C147.138 63.8356 147.588 64.2833 147.747 65.1034L151.184 82.3774C151.335 83.0091 151.445 83.6368 151.516 84.2605C151.614 84.8868 151.723 85.5277 151.844 86.1833L152.561 86.2558C152.811 85.6378 153.046 85.0318 153.267 84.4377C153.488 83.8436 153.725 83.2243 153.978 82.5798L160.8 66.4247C161.093 65.6503 161.637 65.3033 162.433 65.3839L166.373 65.7827ZM195.9 68.7717L193.12 96.2314L189.738 95.8889L191.764 75.8712C191.818 75.3406 191.885 74.8113 191.965 74.2834C192.045 73.7555 192.151 73.2435 192.281 72.7475L192.082 72.7273C191.846 73.2126 191.568 73.7071 191.249 74.2109C190.932 74.6881 190.632 75.1402 190.347 75.567L176.127 94.5112L172.546 94.1486L175.325 66.689L178.708 67.0314L176.702 86.8501C176.645 87.4073 176.562 87.9617 176.453 88.5135C176.373 89.0414 176.279 89.568 176.172 90.0933L176.332 90.1094C176.595 89.6268 176.885 89.1469 177.201 88.6696C177.544 88.1951 177.872 87.7325 178.186 87.2818L192.279 68.4051L195.9 68.7717ZM221.584 70.849C223.574 71.0504 225.234 71.4597 226.566 72.0769C227.923 72.6968 228.957 73.6055 229.667 74.8031C230.406 75.9768 230.868 77.4978 231.054 79.366C231.267 81.237 231.238 83.5123 230.966 86.1919C230.695 88.8715 230.268 91.1065 229.685 92.8969C229.128 94.6899 228.369 96.1006 227.407 97.129C226.474 98.1335 225.281 98.8034 223.826 99.1386C222.398 99.4765 220.689 99.5448 218.7 99.3433C216.71 99.1419 215.036 98.7312 213.678 98.1113C212.347 97.4941 211.312 96.5987 210.573 95.425C209.837 94.2247 209.362 92.6891 209.15 90.8182C208.963 88.9499 209.006 86.676 209.277 83.9964C209.549 81.3167 209.963 79.0804 210.519 77.2873C211.103 75.497 211.874 74.1009 212.833 73.099C213.795 72.0707 214.99 71.3875 216.417 71.0496C217.872 70.7144 219.594 70.6475 221.584 70.849ZM221.266 73.9929C219.462 73.8103 217.994 74.0101 216.863 74.5925C215.758 75.1776 214.899 76.2565 214.284 77.8292C213.698 79.3781 213.263 81.5587 212.978 84.371C212.696 87.1568 212.686 89.3803 212.946 91.0417C213.234 92.7058 213.86 93.9351 214.825 94.7296C215.816 95.5268 217.214 96.0168 219.018 96.1994C220.822 96.382 222.276 96.1808 223.381 95.5957C224.512 95.0134 225.372 93.9345 225.96 92.359C226.575 90.7863 227.023 88.607 227.305 85.8213C227.59 83.009 227.587 80.7841 227.297 79.1465C227.037 77.4852 226.411 76.2559 225.419 75.4586C224.454 74.6641 223.07 74.1755 221.266 73.9929ZM250.648 74.3137L247.868 101.773L244.366 101.419L247.146 73.9592L250.648 74.3137ZM262.601 86.9015L262.295 89.926L248.883 88.5684L249.189 85.5439L262.601 86.9015ZM266.805 75.9492L264.026 103.409L260.523 103.054L263.303 75.5947L266.805 75.9492ZM284.474 77.7378C284.792 77.77 285.061 77.891 285.281 78.1009C285.504 78.2843 285.64 78.5259 285.69 78.8258L291.842 106.225L288.221 105.858L283.377 82.6121C283.309 82.2299 283.227 81.8464 283.132 81.4616C283.066 81.0528 282.997 80.6707 282.926 80.315L281.812 80.2022C281.671 80.5364 281.527 80.8971 281.381 81.2843C281.237 81.645 281.08 82.0043 280.91 82.3623L271.506 104.166L267.885 103.8L279.402 78.1893C279.512 77.9055 279.694 77.6961 279.948 77.5611C280.206 77.3996 280.494 77.3349 280.812 77.3671L284.474 77.7378ZM287.964 94.0925L287.658 97.117L273.729 95.707L274.035 92.6825L287.964 94.0925ZM308.128 79.6498C309.295 79.7679 310.288 79.8952 311.105 80.0315C311.948 80.1705 312.708 80.3412 313.385 80.5437C314.09 80.7224 314.805 80.9421 315.529 81.2031L314.901 83.8332C314.113 83.673 313.377 83.5315 312.693 83.4086C312.035 83.2884 311.322 83.1761 310.556 83.0717C309.789 82.9673 308.875 82.8613 307.814 82.7539C306.036 82.574 304.595 82.7765 303.491 83.3616C302.386 83.9467 301.526 85.0256 300.911 86.5983C300.323 88.1737 299.888 90.3543 299.606 93.1401C299.324 95.9259 299.313 98.1494 299.574 99.8108C299.861 101.475 300.487 102.704 301.452 103.499C302.417 104.293 303.788 104.78 305.566 104.96C307.264 105.132 308.686 105.249 309.832 105.312C311.008 105.35 312.16 105.347 313.291 105.3L313.383 107.963C312.21 108.166 311.007 108.272 309.773 108.281C308.563 108.319 307.056 108.247 305.252 108.065C302.625 107.799 300.561 107.134 299.061 106.071C297.59 104.984 296.6 103.369 296.094 101.227C295.613 99.0882 295.55 96.2675 295.905 92.7654C296.259 89.2633 296.886 86.5125 297.786 84.5129C298.711 82.516 300.003 81.1457 301.659 80.4021C303.345 79.6347 305.501 79.3839 308.128 79.6498Z" fill="white"/>
<circle cx="346.904" cy="95.7165" r="7" transform="rotate(5.78021 346.904 95.7165)" fill="#6668FA" stroke="white" stroke-width="6"/>
<path d="M401.558 89.5896L401.127 93.8478L392.054 92.9293C390.488 92.7709 389.575 93.4557 389.313 94.9837C388.976 96.7187 388.667 98.3223 388.384 99.7946C388.103 101.24 387.808 102.564 387.499 103.766C387.19 104.967 386.864 106.073 386.52 107.084C386.206 108.071 385.833 108.971 385.402 109.785C384.681 111.347 383.836 112.548 382.867 113.388C381.897 114.228 380.811 114.761 379.609 114.988C378.409 115.188 377.101 115.136 375.685 114.832L375.722 110.092C376.617 109.995 377.414 109.794 378.115 109.49C378.819 109.159 379.419 108.523 379.916 107.581C380.214 107.022 380.488 106.433 380.738 105.815C380.991 105.171 381.223 104.471 381.434 103.715C381.673 102.935 381.896 102.059 382.101 101.088C382.333 100.12 382.563 99.0446 382.79 97.8614C383.02 96.6517 383.277 95.2975 383.563 93.7986C384.258 89.8485 386.582 88.0735 390.535 88.4737L401.558 89.5896ZM402.155 89.65L399.376 117.11L393.287 116.493L396.067 89.0336L402.155 89.65ZM430.517 92.521L427.737 119.981L421.927 119.392L423.579 103.076C423.64 102.466 423.729 101.858 423.844 101.253C423.961 100.622 424.104 100.006 424.272 99.407L424.033 99.3828C423.756 99.9981 423.454 100.597 423.127 101.181C422.803 101.738 422.465 102.293 422.114 102.847L411.023 118.289L405.093 117.688L407.873 90.2288L413.683 90.8169L412.064 106.815C412.002 107.425 411.898 108.058 411.751 108.713C411.633 109.345 411.501 109.988 411.354 110.643L411.553 110.663C411.857 110.051 412.172 109.453 412.499 108.869C412.853 108.289 413.217 107.736 413.591 107.211L424.587 91.9207L430.517 92.521ZM458.291 95.3324L455.511 122.792L449.422 122.176L451.771 98.9743L448.149 98.6077C447.38 98.5298 446.791 98.6578 446.382 98.9916C445.973 99.3255 445.7 99.9009 445.564 100.718C445.203 102.692 444.835 104.477 444.459 106.074C444.082 107.671 443.665 109.143 443.207 110.49C442.779 111.814 442.277 113.063 441.702 114.238C441.157 115.389 440.52 116.517 439.792 117.623C439.066 118.702 438.23 119.81 437.284 120.947L432.15 120.427C433.658 118.248 434.903 116.002 435.888 113.69C436.875 111.35 437.693 108.967 438.341 106.54C438.991 104.087 439.535 101.622 439.973 99.147C440.275 97.489 441.022 96.1977 442.215 95.2731C443.434 94.3512 444.946 93.9815 446.75 94.1642L458.291 95.3324ZM436.118 120.548L435.004 126.787L430.627 126.344L431.263 120.056L436.118 120.548ZM459.524 118.896L459.093 123.155L431.235 120.335L431.666 116.076L459.524 118.896ZM459.121 122.876L458.484 129.164L454.147 128.725L454.306 122.389L459.121 122.876ZM478.638 97.3921C479.142 97.4432 479.565 97.6334 479.907 97.9628C480.275 98.295 480.502 98.7065 480.586 99.1975L485.927 125.871L479.719 125.243L476.15 104.498C476.089 104.036 476.029 103.574 475.968 103.112C475.911 102.624 475.863 102.164 475.827 101.731L474.752 101.622C474.63 102.039 474.491 102.48 474.337 102.947C474.211 103.39 474.06 103.83 473.881 104.268L466.228 123.877L459.979 123.244L470.597 98.1863C470.778 97.7222 471.069 97.363 471.47 97.1088C471.898 96.8572 472.363 96.757 472.867 96.808L478.638 97.3921ZM481.273 113.459L480.81 118.036L466.563 116.594L467.026 112.017L481.273 113.459ZM522.858 101.868L520.078 129.328L514.268 128.74L515.919 112.423C515.981 111.813 516.069 111.206 516.184 110.601C516.302 109.969 516.444 109.354 516.612 108.754L516.374 108.73C516.097 109.345 515.795 109.945 515.468 110.528C515.143 111.085 514.806 111.64 514.455 112.195L503.363 127.636L497.434 127.036L500.213 99.5761L506.024 100.164L504.404 116.163C504.342 116.773 504.238 117.405 504.091 118.061C503.974 118.692 503.842 119.335 503.695 119.991L503.894 120.011C504.197 119.398 504.512 118.8 504.839 118.217C505.193 117.636 505.557 117.083 505.932 116.558L516.928 101.268L522.858 101.868ZM549.358 104.551L548.927 108.809L539.853 107.891C538.288 107.732 537.374 108.417 537.112 109.945C536.776 111.68 536.466 113.284 536.183 114.756C535.903 116.202 535.608 117.525 535.299 118.727C534.989 119.929 534.663 121.035 534.319 122.045C534.005 123.032 533.633 123.932 533.202 124.746C532.481 126.308 531.635 127.509 530.666 128.349C529.696 129.189 528.611 129.723 527.408 129.949C526.209 130.15 524.901 130.098 523.484 129.793L523.522 125.053C524.416 124.956 525.214 124.755 525.914 124.451C526.618 124.12 527.218 123.484 527.716 122.543C528.014 121.983 528.288 121.395 528.538 120.777C528.791 120.132 529.022 119.432 529.233 118.676C529.473 117.896 529.695 117.021 529.901 116.05C530.133 115.082 530.362 114.006 530.589 112.823C530.819 111.613 531.077 110.259 531.362 108.76C532.057 104.81 534.381 103.035 538.334 103.435L549.358 104.551ZM549.955 104.611L547.175 132.071L541.086 131.455L543.866 103.995L549.955 104.611ZM578.316 107.482L575.537 134.942L569.726 134.354L571.378 118.037C571.44 117.427 571.528 116.819 571.643 116.215C571.761 115.583 571.903 114.968 572.071 114.368L571.832 114.344C571.556 114.959 571.254 115.559 570.927 116.142C570.602 116.699 570.265 117.254 569.914 117.809L558.822 133.25L552.892 132.65L555.672 105.19L561.482 105.778L559.863 121.776C559.801 122.387 559.697 123.019 559.55 123.675C559.433 124.306 559.301 124.949 559.154 125.605L559.353 125.625C559.656 125.012 559.971 124.414 560.298 123.831C560.652 123.25 561.016 122.697 561.391 122.172L572.387 106.882L578.316 107.482ZM614.679 111.163L611.899 138.623L605.81 138.006L608.159 114.805L604.538 114.438C603.768 114.361 603.179 114.489 602.77 114.822C602.361 115.156 602.088 115.732 601.952 116.549C601.591 118.523 601.223 120.308 600.847 121.905C600.471 123.502 600.054 124.974 599.596 126.321C599.167 127.645 598.665 128.894 598.091 130.069C597.545 131.22 596.908 132.348 596.18 133.453C595.454 134.533 594.618 135.641 593.672 136.778L588.539 136.258C590.046 134.079 591.292 131.833 592.276 129.52C593.264 127.181 594.081 124.798 594.729 122.371C595.379 119.917 595.924 117.453 596.362 114.978C596.664 113.32 597.411 112.028 598.603 111.104C599.822 110.182 601.334 109.812 603.138 109.995L614.679 111.163ZM592.507 136.378L591.393 142.618L587.015 142.175L587.652 135.887L592.507 136.378ZM615.912 134.727L615.481 138.985L587.623 136.165L588.054 131.907L615.912 134.727ZM615.509 138.707L614.873 144.995L610.535 144.556L610.694 138.219L615.509 138.707ZM635.026 113.223C635.53 113.274 635.953 113.464 636.295 113.794C636.664 114.126 636.89 114.537 636.974 115.028L642.315 141.702L636.107 141.073L632.538 120.328C632.478 119.867 632.417 119.405 632.357 118.943C632.299 118.455 632.252 117.994 632.215 117.562L631.14 117.453C631.018 117.869 630.879 118.311 630.725 118.778C630.6 119.221 630.448 119.661 630.27 120.099L622.616 139.708L616.368 139.075L626.985 114.017C627.166 113.553 627.457 113.194 627.858 112.94C628.286 112.688 628.752 112.588 629.256 112.639L635.026 113.223ZM637.661 129.29L637.198 133.867L622.951 132.424L623.414 127.848L637.661 129.29Z" fill="white"/>
<circle cx="685.175" cy="129.959" r="7" transform="rotate(5.78021 685.175 129.959)" fill="#6668FA" stroke="white" stroke-width="6"/>
<path d="M729.451 122.299C730.619 122.417 731.611 122.544 732.428 122.68C733.272 122.819 734.032 122.99 734.708 123.193C735.414 123.371 736.128 123.591 736.853 123.852L736.224 126.482C735.437 126.322 734.7 126.18 734.016 126.058C733.358 125.937 732.646 125.825 731.879 125.721C731.112 125.616 730.198 125.51 729.137 125.403C727.36 125.223 725.918 125.425 724.814 126.011C723.709 126.596 722.85 127.675 722.235 129.247C721.647 130.823 721.211 133.003 720.929 135.789C720.647 138.575 720.637 140.798 720.897 142.46C721.185 144.124 721.811 145.353 722.776 146.148C723.74 146.942 725.112 147.429 726.889 147.609C728.587 147.781 730.009 147.898 731.156 147.961C732.331 147.999 733.484 147.996 734.614 147.949L734.707 150.612C733.533 150.815 732.33 150.921 731.096 150.93C729.886 150.968 728.379 150.896 726.575 150.714C723.948 150.448 721.885 149.783 720.384 148.72C718.913 147.633 717.924 146.018 717.417 143.876C716.937 141.737 716.874 138.917 717.228 135.414C717.583 131.912 718.21 129.161 719.109 127.162C720.035 125.165 721.326 123.795 722.983 123.051C724.669 122.284 726.825 122.033 729.451 122.299ZM768.297 126.713C769.252 126.81 769.68 127.349 769.58 128.331L768.104 154.435L764.602 154.08L766.092 129.425L765.257 129.341L757.077 148.977C756.785 149.751 756.24 150.098 755.444 150.017L752.3 149.699C751.478 149.616 750.988 149.164 750.829 148.344L746.751 127.467L745.955 127.387L742.515 151.845L739.013 151.49L742.718 125.612C742.87 124.635 743.411 124.194 744.339 124.288L748.319 124.691C749.062 124.766 749.512 125.214 749.67 126.034L753.108 143.308C753.259 143.94 753.369 144.567 753.44 145.191C753.538 145.817 753.647 146.458 753.768 147.114L754.485 147.186C754.735 146.568 754.97 145.962 755.191 145.368C755.412 144.774 755.649 144.155 755.902 143.511L762.724 127.355C763.017 126.581 763.561 126.234 764.357 126.315L768.297 126.713ZM797.824 129.702L795.044 157.162L791.662 156.82L793.688 136.802C793.742 136.271 793.809 135.742 793.889 135.214C793.969 134.686 794.075 134.174 794.205 133.678L794.006 133.658C793.769 134.143 793.492 134.638 793.173 135.142C792.856 135.619 792.556 136.071 792.271 136.498L778.051 155.442L774.469 155.079L777.249 127.62L780.632 127.962L778.626 147.781C778.569 148.338 778.486 148.892 778.377 149.444C778.297 149.972 778.203 150.499 778.096 151.024L778.255 151.04C778.519 150.557 778.809 150.078 779.125 149.6C779.468 149.126 779.796 148.663 780.11 148.212L794.202 129.336L797.824 129.702ZM823.508 131.78C825.498 131.981 827.158 132.39 828.489 133.008C829.847 133.627 830.881 134.536 831.591 135.734C832.33 136.907 832.792 138.428 832.978 140.297C833.191 142.168 833.162 144.443 832.89 147.123C832.619 149.802 832.192 152.037 831.609 153.828C831.052 155.621 830.293 157.031 829.331 158.06C828.398 159.064 827.205 159.734 825.75 160.069C824.322 160.407 822.613 160.475 820.623 160.274C818.634 160.073 816.96 159.662 815.602 159.042C814.271 158.425 813.236 157.529 812.497 156.356C811.761 155.155 811.286 153.62 811.073 151.749C810.887 149.881 810.93 147.607 811.201 144.927C811.472 142.247 811.886 140.011 812.443 138.218C813.026 136.428 813.798 135.032 814.757 134.03C815.719 133.001 816.913 132.318 818.341 131.98C819.796 131.645 821.518 131.578 823.508 131.78ZM823.19 134.924C821.385 134.741 819.918 134.941 818.787 135.523C817.682 136.108 816.823 137.187 816.208 138.76C815.622 140.309 815.187 142.489 814.902 145.302C814.62 148.087 814.61 150.311 814.87 151.972C815.157 153.636 815.784 154.866 816.748 155.66C817.74 156.458 819.138 156.947 820.942 157.13C822.746 157.313 824.2 157.111 825.305 156.526C826.436 155.944 827.295 154.865 827.884 153.29C828.499 151.717 828.947 149.538 829.229 146.752C829.514 143.94 829.511 141.715 829.221 140.077C828.961 138.416 828.335 137.187 827.343 136.389C826.378 135.595 824.994 135.106 823.19 134.924ZM852.572 135.244L849.792 162.704L846.29 162.349L849.07 134.89L852.572 135.244ZM864.525 147.832L864.219 150.857L850.807 149.499L851.113 146.475L864.525 147.832ZM868.729 136.88L865.949 164.34L862.447 163.985L865.227 136.525L868.729 136.88ZM886.398 138.668C886.716 138.701 886.985 138.822 887.205 139.032C887.428 139.215 887.564 139.457 887.614 139.756L893.766 167.155L890.145 166.789L885.301 143.543C885.233 143.161 885.151 142.777 885.056 142.392C884.99 141.984 884.921 141.601 884.85 141.246L883.736 141.133C883.595 141.467 883.451 141.828 883.305 142.215C883.161 142.576 883.004 142.935 882.834 143.293L873.43 165.097L869.808 164.73L881.326 139.12C881.435 138.836 881.617 138.627 881.872 138.492C882.13 138.33 882.418 138.266 882.736 138.298L886.398 138.668ZM889.888 155.023L889.582 158.048L875.653 156.638L875.959 153.613L889.888 155.023ZM910.052 140.58C911.219 140.699 912.211 140.826 913.029 140.962C913.872 141.101 914.632 141.272 915.309 141.474C916.014 141.653 916.729 141.873 917.453 142.134L916.825 144.764C916.037 144.604 915.301 144.462 914.616 144.339C913.959 144.219 913.246 144.107 912.48 144.002C911.713 143.898 910.799 143.792 909.738 143.685C907.96 143.505 906.519 143.707 905.414 144.292C904.31 144.877 903.45 145.956 902.835 147.529C902.247 149.104 901.812 151.285 901.53 154.071C901.248 156.857 901.237 159.08 901.498 160.741C901.785 162.405 902.411 163.635 903.376 164.429C904.341 165.224 905.712 165.711 907.49 165.891C909.188 166.063 910.61 166.18 911.756 166.243C912.931 166.281 914.084 166.277 915.215 166.231L915.307 168.894C914.134 169.097 912.931 169.203 911.697 169.212C910.487 169.25 908.98 169.178 907.175 168.995C904.549 168.729 902.485 168.065 900.985 167.002C899.513 165.915 898.524 164.3 898.017 162.158C897.537 160.019 897.474 157.198 897.829 153.696C898.183 150.194 898.81 147.443 899.709 145.444C900.635 143.447 901.927 142.076 903.583 141.333C905.269 140.565 907.425 140.315 910.052 140.58Z" fill="white"/>
<circle cx="948.827" cy="156.647" r="7" transform="rotate(5.78021 948.827 156.647)" fill="#6668FA" stroke="white" stroke-width="6"/>
<path d="M1003.48 150.521L1003.05 154.779L993.978 153.86C992.412 153.702 991.499 154.387 991.237 155.915C990.9 157.65 990.591 159.253 990.308 160.726C990.027 162.172 989.732 163.495 989.423 164.697C989.114 165.898 988.788 167.005 988.444 168.015C988.13 169.002 987.757 169.902 987.326 170.716C986.605 172.278 985.76 173.479 984.791 174.319C983.821 175.159 982.735 175.693 981.533 175.919C980.333 176.119 979.025 176.067 977.609 175.763L977.646 171.023C978.54 170.926 979.338 170.725 980.039 170.421C980.743 170.09 981.343 169.454 981.84 168.513C982.138 167.953 982.412 167.364 982.662 166.746C982.915 166.102 983.147 165.402 983.357 164.646C983.597 163.866 983.82 162.991 984.025 162.02C984.257 161.051 984.487 159.976 984.714 158.793C984.944 157.583 985.201 156.229 985.487 154.73C986.182 150.78 988.506 149.005 992.459 149.405L1003.48 150.521ZM1004.08 150.581L1001.3 178.041L995.211 177.424L997.99 149.965L1004.08 150.581ZM1032.44 153.452L1029.66 180.912L1023.85 180.324L1025.5 164.007C1025.56 163.397 1025.65 162.789 1025.77 162.184C1025.89 161.553 1026.03 160.938 1026.2 160.338L1025.96 160.314C1025.68 160.929 1025.38 161.529 1025.05 162.112C1024.73 162.669 1024.39 163.224 1024.04 163.778L1012.95 179.22L1007.02 178.62L1009.8 151.16L1015.61 151.748L1013.99 167.746C1013.93 168.357 1013.82 168.989 1013.67 169.644C1013.56 170.276 1013.43 170.919 1013.28 171.574L1013.48 171.594C1013.78 170.982 1014.1 170.384 1014.42 169.801C1014.78 169.22 1015.14 168.667 1015.52 168.142L1026.51 152.852L1032.44 153.452ZM1060.21 156.264L1057.43 183.723L1051.35 183.107L1053.69 159.905L1050.07 159.539C1049.3 159.461 1048.71 159.589 1048.31 159.923C1047.9 160.257 1047.62 160.832 1047.49 161.649C1047.13 163.623 1046.76 165.408 1046.38 167.005C1046.01 168.602 1045.59 170.074 1045.13 171.422C1044.7 172.745 1044.2 173.994 1043.63 175.169C1043.08 176.32 1042.44 177.448 1041.72 178.554C1040.99 179.633 1040.15 180.741 1039.21 181.878L1034.07 181.359C1035.58 179.179 1036.83 176.933 1037.81 174.621C1038.8 172.282 1039.62 169.898 1040.26 167.471C1040.91 165.018 1041.46 162.553 1041.9 160.078C1042.2 158.42 1042.95 157.129 1044.14 156.204C1045.36 155.282 1046.87 154.913 1048.67 155.095L1060.21 156.264ZM1038.04 181.479L1036.93 187.718L1032.55 187.275L1033.19 180.987L1038.04 181.479ZM1061.45 179.828L1061.02 184.086L1033.16 181.266L1033.59 177.008L1061.45 179.828ZM1061.04 183.807L1060.41 190.095L1056.07 189.656L1056.23 183.32L1061.04 183.807ZM1080.56 158.323C1081.07 158.374 1081.49 158.565 1081.83 158.894C1082.2 159.226 1082.43 159.638 1082.51 160.129L1087.85 186.802L1081.64 186.174L1078.07 165.429C1078.01 164.967 1077.95 164.505 1077.89 164.043C1077.83 163.555 1077.79 163.095 1077.75 162.662L1076.68 162.553C1076.55 162.97 1076.42 163.412 1076.26 163.878C1076.14 164.321 1075.98 164.762 1075.81 165.199L1068.15 184.808L1061.9 184.176L1072.52 159.117C1072.7 158.653 1072.99 158.294 1073.39 158.04C1073.82 157.788 1074.29 157.688 1074.79 157.739L1080.56 158.323ZM1083.2 174.39L1082.73 178.967L1068.49 177.525L1068.95 172.948L1083.2 174.39ZM1124.78 162.8L1122 190.259L1116.19 189.671L1117.84 173.354C1117.91 172.744 1117.99 172.137 1118.11 171.532C1118.23 170.9 1118.37 170.285 1118.54 169.686L1118.3 169.661C1118.02 170.277 1117.72 170.876 1117.39 171.459C1117.07 172.016 1116.73 172.572 1116.38 173.126L1105.29 188.567L1099.36 187.967L1102.14 160.507L1107.95 161.095L1106.33 177.094C1106.27 177.704 1106.16 178.337 1106.02 178.992C1105.9 179.623 1105.77 180.267 1105.62 180.922L1105.82 180.942C1106.12 180.329 1106.44 179.731 1106.76 179.148C1107.12 178.567 1107.48 178.015 1107.86 177.49L1118.85 162.199L1124.78 162.8ZM1151.28 165.482L1150.85 169.74L1141.78 168.822C1140.21 168.663 1139.3 169.348 1139.04 170.876C1138.7 172.611 1138.39 174.215 1138.11 175.687C1137.83 177.133 1137.53 178.457 1137.22 179.658C1136.91 180.86 1136.59 181.966 1136.24 182.976C1135.93 183.963 1135.56 184.864 1135.13 185.678C1134.4 187.24 1133.56 188.441 1132.59 189.281C1131.62 190.121 1130.53 190.654 1129.33 190.881C1128.13 191.081 1126.82 191.029 1125.41 190.725L1125.45 185.984C1126.34 185.887 1127.14 185.686 1127.84 185.382C1128.54 185.051 1129.14 184.415 1129.64 183.474C1129.94 182.914 1130.21 182.326 1130.46 181.708C1130.71 181.063 1130.95 180.363 1131.16 179.607C1131.4 178.827 1131.62 177.952 1131.82 176.981C1132.06 176.013 1132.29 174.937 1132.51 173.754C1132.74 172.544 1133 171.19 1133.29 169.691C1133.98 165.741 1136.3 163.966 1140.26 164.366L1151.28 165.482ZM1151.88 165.542L1149.1 193.002L1143.01 192.386L1145.79 164.926L1151.88 165.542ZM1180.24 168.413L1177.46 195.873L1171.65 195.285L1173.3 178.968C1173.36 178.358 1173.45 177.751 1173.57 177.146C1173.68 176.514 1173.83 175.899 1174 175.299L1173.76 175.275C1173.48 175.891 1173.18 176.49 1172.85 177.073C1172.53 177.63 1172.19 178.186 1171.84 178.74L1160.75 194.181L1154.82 193.581L1157.6 166.121L1163.41 166.709L1161.79 182.708C1161.73 183.318 1161.62 183.951 1161.47 184.606C1161.36 185.237 1161.22 185.88 1161.08 186.536L1161.28 186.556C1161.58 185.943 1161.9 185.345 1162.22 184.762C1162.58 184.181 1162.94 183.628 1163.31 183.104L1174.31 167.813L1180.24 168.413ZM1216.6 172.094L1213.82 199.554L1207.73 198.938L1210.08 175.736L1206.46 175.37C1205.69 175.292 1205.1 175.42 1204.69 175.754C1204.28 176.087 1204.01 176.663 1203.88 177.48C1203.52 179.454 1203.15 181.239 1202.77 182.836C1202.39 184.433 1201.98 185.905 1201.52 187.252C1201.09 188.576 1200.59 189.825 1200.01 191C1199.47 192.151 1198.83 193.279 1198.1 194.385C1197.38 195.464 1196.54 196.572 1195.6 197.709L1190.46 197.189C1191.97 195.01 1193.22 192.764 1194.2 190.451C1195.19 188.112 1196 185.729 1196.65 183.302C1197.3 180.848 1197.85 178.384 1198.29 175.909C1198.59 174.251 1199.33 172.96 1200.53 172.035C1201.75 171.113 1203.26 170.743 1205.06 170.926L1216.6 172.094ZM1194.43 197.31L1193.32 203.549L1188.94 203.106L1189.58 196.818L1194.43 197.31ZM1217.84 195.658L1217.4 199.917L1189.55 197.097L1189.98 192.838L1217.84 195.658ZM1217.43 199.638L1216.8 205.926L1212.46 205.487L1212.62 199.151L1217.43 199.638ZM1236.95 174.154C1237.45 174.205 1237.88 174.395 1238.22 174.725C1238.59 175.057 1238.81 175.468 1238.9 175.959L1244.24 202.633L1238.03 202.004L1234.46 181.26C1234.4 180.798 1234.34 180.336 1234.28 179.874C1234.22 179.386 1234.18 178.926 1234.14 178.493L1233.06 178.384C1232.94 178.801 1232.8 179.242 1232.65 179.709C1232.52 180.152 1232.37 180.592 1232.19 181.03L1224.54 200.639L1218.29 200.006L1228.91 174.948C1229.09 174.484 1229.38 174.125 1229.78 173.871C1230.21 173.619 1230.68 173.519 1231.18 173.57L1236.95 174.154ZM1239.59 190.221L1239.12 194.798L1224.87 193.356L1225.34 188.779L1239.59 190.221Z" fill="white"/>
<circle cx="1287.1" cy="190.89" r="7" transform="rotate(5.78021 1287.1 190.89)" fill="#6668FA" stroke="white" stroke-width="6"/>
<path d="M1331.38 183.23C1332.54 183.348 1333.53 183.475 1334.35 183.612C1335.2 183.751 1335.96 183.921 1336.63 184.124C1337.34 184.302 1338.05 184.522 1338.78 184.783L1338.15 187.413C1337.36 187.253 1336.62 187.112 1335.94 186.989C1335.28 186.869 1334.57 186.756 1333.8 186.652C1333.04 186.547 1332.12 186.441 1331.06 186.334C1329.28 186.154 1327.84 186.357 1326.74 186.942C1325.63 187.527 1324.77 188.606 1324.16 190.178C1323.57 191.754 1323.14 193.934 1322.85 196.72C1322.57 199.506 1322.56 201.73 1322.82 203.391C1323.11 205.055 1323.73 206.284 1324.7 207.079C1325.66 207.873 1327.04 208.361 1328.81 208.541C1330.51 208.712 1331.93 208.83 1333.08 208.892C1334.25 208.931 1335.41 208.927 1336.54 208.88L1336.63 211.543C1335.46 211.746 1334.25 211.852 1333.02 211.861C1331.81 211.899 1330.3 211.827 1328.5 211.645C1325.87 211.379 1323.81 210.714 1322.31 209.651C1320.84 208.564 1319.85 206.95 1319.34 204.808C1318.86 202.668 1318.8 199.848 1319.15 196.346C1319.51 192.843 1320.13 190.093 1321.03 188.093C1321.96 186.096 1323.25 184.726 1324.91 183.982C1326.59 183.215 1328.75 182.964 1331.38 183.23ZM1370.22 187.645C1371.18 187.741 1371.6 188.28 1371.5 189.262L1370.03 215.366L1366.53 215.012L1368.02 190.356L1367.18 190.272L1359 209.908C1358.71 210.682 1358.16 211.029 1357.37 210.949L1354.22 210.63C1353.4 210.547 1352.91 210.095 1352.75 209.275L1348.68 188.398L1347.88 188.318L1344.44 212.776L1340.94 212.421L1344.64 186.543C1344.79 185.567 1345.33 185.125 1346.26 185.219L1350.24 185.622C1350.99 185.697 1351.44 186.145 1351.59 186.965L1355.03 204.239C1355.18 204.871 1355.29 205.499 1355.36 206.122C1355.46 206.749 1355.57 207.39 1355.69 208.045L1356.41 208.118C1356.66 207.5 1356.89 206.894 1357.12 206.3C1357.34 205.705 1357.57 205.086 1357.83 204.442L1364.65 188.287C1364.94 187.512 1365.48 187.165 1366.28 187.246L1370.22 187.645ZM1399.75 190.634L1396.97 218.093L1393.59 217.751L1395.61 197.733C1395.67 197.202 1395.73 196.673 1395.81 196.145C1395.89 195.617 1396 195.105 1396.13 194.609L1395.93 194.589C1395.69 195.074 1395.42 195.569 1395.1 196.073C1394.78 196.55 1394.48 197.002 1394.2 197.429L1379.98 216.373L1376.39 216.01L1379.17 188.551L1382.56 188.893L1380.55 208.712C1380.49 209.269 1380.41 209.824 1380.3 210.375C1380.22 210.903 1380.13 211.43 1380.02 211.955L1380.18 211.971C1380.44 211.489 1380.73 211.009 1381.05 210.531C1381.39 210.057 1381.72 209.594 1382.03 209.144L1396.13 190.267L1399.75 190.634ZM1425.43 192.711C1427.42 192.912 1429.08 193.322 1430.41 193.939C1431.77 194.559 1432.8 195.467 1433.51 196.665C1434.25 197.839 1434.72 199.36 1434.9 201.228C1435.11 203.099 1435.09 205.374 1434.81 208.054C1434.54 210.733 1434.12 212.968 1433.53 214.759C1432.98 216.552 1432.22 217.962 1431.25 218.991C1430.32 219.995 1429.13 220.665 1427.67 221C1426.25 221.338 1424.54 221.407 1422.55 221.205C1420.56 221.004 1418.88 220.593 1417.53 219.973C1416.19 219.356 1415.16 218.46 1414.42 217.287C1413.68 216.087 1413.21 214.551 1413 212.68C1412.81 210.812 1412.85 208.538 1413.13 205.858C1413.4 203.179 1413.81 200.942 1414.37 199.149C1414.95 197.359 1415.72 195.963 1416.68 194.961C1417.64 193.932 1418.84 193.249 1420.27 192.911C1421.72 192.576 1423.44 192.509 1425.43 192.711ZM1425.11 195.855C1423.31 195.672 1421.84 195.872 1420.71 196.454C1419.61 197.039 1418.75 198.118 1418.13 199.691C1417.55 201.24 1417.11 203.421 1416.83 206.233C1416.54 209.019 1416.53 211.242 1416.79 212.904C1417.08 214.568 1417.71 215.797 1418.67 216.591C1419.66 217.389 1421.06 217.879 1422.87 218.061C1424.67 218.244 1426.12 218.043 1427.23 217.458C1428.36 216.875 1429.22 215.796 1429.81 214.221C1430.42 212.648 1430.87 210.469 1431.15 207.683C1431.44 204.871 1431.44 202.646 1431.15 201.008C1430.88 199.347 1430.26 198.118 1429.27 197.32C1428.3 196.526 1426.92 196.037 1425.11 195.855ZM1454.5 196.175L1451.72 223.635L1448.21 223.281L1450.99 195.821L1454.5 196.175ZM1466.45 208.763L1466.14 211.788L1452.73 210.43L1453.04 207.406L1466.45 208.763ZM1470.65 197.811L1467.87 225.271L1464.37 224.916L1467.15 197.457L1470.65 197.811ZM1488.32 199.6C1488.64 199.632 1488.91 199.753 1489.13 199.963C1489.35 200.146 1489.49 200.388 1489.54 200.688L1495.69 228.087L1492.07 227.72L1487.23 204.474C1487.16 204.092 1487.07 203.708 1486.98 203.323C1486.91 202.915 1486.85 202.532 1486.77 202.177L1485.66 202.064C1485.52 202.398 1485.38 202.759 1485.23 203.146C1485.08 203.507 1484.93 203.866 1484.76 204.224L1475.35 226.028L1471.73 225.661L1483.25 200.051C1483.36 199.767 1483.54 199.558 1483.8 199.423C1484.05 199.261 1484.34 199.197 1484.66 199.229L1488.32 199.6ZM1491.81 215.954L1491.51 218.979L1477.58 217.569L1477.88 214.544L1491.81 215.954ZM1511.98 201.512C1513.14 201.63 1514.14 201.757 1514.95 201.893C1515.8 202.032 1516.56 202.203 1517.23 202.406C1517.94 202.584 1518.65 202.804 1519.38 203.065L1518.75 205.695C1517.96 205.535 1517.22 205.393 1516.54 205.27C1515.88 205.15 1515.17 205.038 1514.4 204.933C1513.64 204.829 1512.72 204.723 1511.66 204.616C1509.88 204.436 1508.44 204.638 1507.34 205.223C1506.23 205.808 1505.37 206.887 1504.76 208.46C1504.17 210.036 1503.74 212.216 1503.45 215.002C1503.17 217.788 1503.16 220.011 1503.42 221.673C1503.71 223.337 1504.34 224.566 1505.3 225.361C1506.26 226.155 1507.64 226.642 1509.41 226.822C1511.11 226.994 1512.53 227.111 1513.68 227.174C1514.86 227.212 1516.01 227.208 1517.14 227.162L1517.23 229.825C1516.06 230.028 1514.85 230.134 1513.62 230.143C1512.41 230.181 1510.9 230.109 1509.1 229.926C1506.47 229.66 1504.41 228.996 1502.91 227.933C1501.44 226.846 1500.45 225.231 1499.94 223.089C1499.46 220.95 1499.4 218.129 1499.75 214.627C1500.11 211.125 1500.73 208.374 1501.63 206.375C1502.56 204.378 1503.85 203.008 1505.51 202.264C1507.19 201.496 1509.35 201.246 1511.98 201.512Z" fill="white"/>
<circle cx="1550.75" cy="217.578" r="7" transform="rotate(5.78021 1550.75 217.578)" fill="#6668FA" stroke="white" stroke-width="6"/>
<path d="M1605.41 211.452L1604.98 215.71L1595.9 214.792C1594.34 214.633 1593.42 215.318 1593.16 216.846C1592.82 218.581 1592.51 220.185 1592.23 221.657C1591.95 223.103 1591.66 224.426 1591.35 225.628C1591.04 226.83 1590.71 227.936 1590.37 228.946C1590.05 229.933 1589.68 230.833 1589.25 231.647C1588.53 233.209 1587.68 234.41 1586.71 235.25C1585.74 236.09 1584.66 236.624 1583.46 236.85C1582.26 237.051 1580.95 236.999 1579.53 236.694L1579.57 231.954C1580.46 231.857 1581.26 231.656 1581.96 231.352C1582.67 231.021 1583.27 230.385 1583.76 229.444C1584.06 228.884 1584.34 228.295 1584.59 227.678C1584.84 227.033 1585.07 226.333 1585.28 225.577C1585.52 224.797 1585.74 223.922 1585.95 222.951C1586.18 221.983 1586.41 220.907 1586.64 219.724C1586.87 218.514 1587.13 217.16 1587.41 215.661C1588.11 211.711 1590.43 209.936 1594.38 210.336L1605.41 211.452ZM1606 211.512L1603.22 238.972L1597.13 238.356L1599.91 210.896L1606 211.512ZM1634.36 214.383L1631.59 241.843L1625.77 241.255L1627.43 224.938C1627.49 224.328 1627.58 223.72 1627.69 223.116C1627.81 222.484 1627.95 221.869 1628.12 221.269L1627.88 221.245C1627.6 221.86 1627.3 222.46 1626.98 223.043C1626.65 223.6 1626.31 224.155 1625.96 224.71L1614.87 240.151L1608.94 239.551L1611.72 212.091L1617.53 212.679L1615.91 228.677C1615.85 229.288 1615.75 229.92 1615.6 230.576C1615.48 231.207 1615.35 231.85 1615.2 232.506L1615.4 232.526C1615.7 231.913 1616.02 231.315 1616.35 230.732C1616.7 230.151 1617.06 229.598 1617.44 229.073L1628.44 213.783L1634.36 214.383ZM1662.14 217.195L1659.36 244.654L1653.27 244.038L1655.62 220.837L1652 220.47C1651.23 220.392 1650.64 220.52 1650.23 220.854C1649.82 221.188 1649.55 221.763 1649.41 222.58C1649.05 224.554 1648.68 226.339 1648.31 227.936C1647.93 229.533 1647.51 231.005 1647.06 232.353C1646.63 233.676 1646.12 234.925 1645.55 236.1C1645 237.251 1644.37 238.379 1643.64 239.485C1642.91 240.564 1642.08 241.672 1641.13 242.809L1636 242.29C1637.51 240.11 1638.75 237.864 1639.74 235.552C1640.72 233.213 1641.54 230.83 1642.19 228.402C1642.84 225.949 1643.38 223.484 1643.82 221.009C1644.12 219.351 1644.87 218.06 1646.06 217.135C1647.28 216.213 1648.79 215.844 1650.6 216.026L1662.14 217.195ZM1639.97 242.41L1638.85 248.649L1634.47 248.206L1635.11 241.918L1639.97 242.41ZM1663.37 240.759L1662.94 245.017L1635.08 242.197L1635.51 237.939L1663.37 240.759ZM1662.97 244.738L1662.33 251.026L1657.99 250.587L1658.15 244.251L1662.97 244.738ZM1682.49 219.254C1682.99 219.305 1683.41 219.496 1683.75 219.825C1684.12 220.157 1684.35 220.569 1684.43 221.06L1689.77 247.733L1683.57 247.105L1680 226.36C1679.94 225.898 1679.88 225.436 1679.82 224.975C1679.76 224.486 1679.71 224.026 1679.67 223.593L1678.6 223.485C1678.48 223.901 1678.34 224.343 1678.18 224.809C1678.06 225.252 1677.91 225.693 1677.73 226.13L1670.08 245.739L1663.83 245.107L1674.44 220.049C1674.63 219.585 1674.92 219.225 1675.32 218.971C1675.75 218.72 1676.21 218.619 1676.72 218.67L1682.49 219.254ZM1685.12 235.322L1684.66 239.898L1670.41 238.456L1670.87 233.879L1685.12 235.322ZM1726.71 223.731L1723.93 251.19L1718.12 250.602L1719.77 234.286C1719.83 233.675 1719.92 233.068 1720.03 232.463C1720.15 231.832 1720.29 231.216 1720.46 230.617L1720.22 230.593C1719.94 231.208 1719.64 231.807 1719.32 232.39C1718.99 232.947 1718.65 233.503 1718.3 234.057L1707.21 249.498L1701.28 248.898L1704.06 221.438L1709.87 222.027L1708.25 238.025C1708.19 238.635 1708.09 239.268 1707.94 239.923C1707.82 240.554 1707.69 241.198 1707.54 241.853L1707.74 241.873C1708.05 241.26 1708.36 240.662 1708.69 240.079C1709.04 239.498 1709.41 238.946 1709.78 238.421L1720.78 223.13L1726.71 223.731ZM1753.21 226.413L1752.77 230.671L1743.7 229.753C1742.14 229.594 1741.22 230.279 1740.96 231.807C1740.62 233.542 1740.31 235.146 1740.03 236.618C1739.75 238.064 1739.46 239.388 1739.15 240.589C1738.84 241.791 1738.51 242.897 1738.17 243.908C1737.85 244.894 1737.48 245.795 1737.05 246.609C1736.33 248.171 1735.48 249.372 1734.51 250.212C1733.54 251.052 1732.46 251.585 1731.26 251.812C1730.06 252.012 1728.75 251.96 1727.33 251.656L1727.37 246.915C1728.26 246.818 1729.06 246.618 1729.76 246.313C1730.47 245.983 1731.07 245.346 1731.56 244.405C1731.86 243.846 1732.14 243.257 1732.39 242.639C1732.64 241.994 1732.87 241.294 1733.08 240.538C1733.32 239.758 1733.54 238.883 1733.75 237.912C1733.98 236.944 1734.21 235.868 1734.44 234.685C1734.67 233.475 1734.92 232.121 1735.21 230.622C1735.9 226.672 1738.23 224.897 1742.18 225.297L1753.21 226.413ZM1753.8 226.474L1751.02 253.933L1744.93 253.317L1747.71 225.857L1753.8 226.474ZM1782.16 229.345L1779.38 256.804L1773.57 256.216L1775.23 239.899C1775.29 239.289 1775.38 238.682 1775.49 238.077C1775.61 237.446 1775.75 236.83 1775.92 236.231L1775.68 236.206C1775.4 236.822 1775.1 237.421 1774.77 238.004C1774.45 238.561 1774.11 239.117 1773.76 239.671L1762.67 255.112L1756.74 254.512L1759.52 227.052L1765.33 227.641L1763.71 243.639C1763.65 244.249 1763.54 244.882 1763.4 245.537C1763.28 246.168 1763.15 246.812 1763 247.467L1763.2 247.487C1763.5 246.874 1763.82 246.276 1764.15 245.693C1764.5 245.112 1764.86 244.56 1765.24 244.035L1776.23 228.744L1782.16 229.345ZM1818.53 233.025L1815.75 260.485L1809.66 259.869L1812.01 236.667L1808.39 236.301C1807.62 236.223 1807.03 236.351 1806.62 236.685C1806.21 237.019 1805.94 237.594 1805.8 238.411C1805.44 240.385 1805.07 242.17 1804.69 243.767C1804.32 245.364 1803.9 246.836 1803.44 248.183C1803.01 249.507 1802.51 250.756 1801.94 251.931C1801.39 253.082 1800.76 254.21 1800.03 255.316C1799.3 256.395 1798.47 257.503 1797.52 258.64L1792.39 258.12C1793.89 255.941 1795.14 253.695 1796.12 251.383C1797.11 249.043 1797.93 246.66 1798.58 244.233C1799.23 241.78 1799.77 239.315 1800.21 236.84C1800.51 235.182 1801.26 233.891 1802.45 232.966C1803.67 232.044 1805.18 231.675 1806.99 231.857L1818.53 233.025ZM1796.35 258.241L1795.24 264.48L1790.86 264.037L1791.5 257.749L1796.35 258.241ZM1819.76 256.589L1819.33 260.848L1791.47 258.028L1791.9 253.77L1819.76 256.589ZM1819.36 260.569L1818.72 266.857L1814.38 266.418L1814.54 260.082L1819.36 260.569ZM1838.87 235.085C1839.38 235.136 1839.8 235.326 1840.14 235.656C1840.51 235.988 1840.74 236.4 1840.82 236.891L1846.16 263.564L1839.95 262.936L1836.39 242.191C1836.33 241.729 1836.26 241.267 1836.2 240.805C1836.15 240.317 1836.1 239.857 1836.06 239.424L1834.99 239.315C1834.87 239.732 1834.73 240.173 1834.57 240.64C1834.45 241.083 1834.3 241.523 1834.12 241.961L1826.46 261.57L1820.22 260.937L1830.83 235.879C1831.01 235.415 1831.31 235.056 1831.71 234.802C1832.13 234.55 1832.6 234.45 1833.1 234.501L1838.87 235.085ZM1841.51 251.152L1841.05 255.729L1826.8 254.287L1827.26 249.71L1841.51 251.152Z" fill="white"/>
<circle cx="1889.02" cy="251.821" r="7" transform="rotate(5.78021 1889.02 251.821)" stroke="white" stroke-width="6"/>
<path d="M1933.3 244.161C1934.47 244.279 1935.46 244.406 1936.28 244.543C1937.12 244.682 1937.88 244.853 1938.56 245.055C1939.26 245.234 1939.98 245.453 1940.7 245.714L1940.07 248.344C1939.28 248.184 1938.55 248.043 1937.86 247.92C1937.21 247.8 1936.49 247.687 1935.73 247.583C1934.96 247.479 1934.05 247.373 1932.98 247.265C1931.21 247.085 1929.77 247.288 1928.66 247.873C1927.56 248.458 1926.7 249.537 1926.08 251.11C1925.49 252.685 1925.06 254.866 1924.78 257.651C1924.5 260.437 1924.48 262.661 1924.75 264.322C1925.03 265.986 1925.66 267.215 1926.62 268.01C1927.59 268.805 1928.96 269.292 1930.74 269.472C1932.43 269.644 1933.86 269.761 1935 269.823C1936.18 269.862 1937.33 269.858 1938.46 269.811L1938.55 272.474C1937.38 272.677 1936.18 272.783 1934.94 272.792C1933.73 272.831 1932.23 272.758 1930.42 272.576C1927.8 272.31 1925.73 271.645 1924.23 270.582C1922.76 269.495 1921.77 267.881 1921.26 265.739C1920.78 263.599 1920.72 260.779 1921.08 257.277C1921.43 253.775 1922.06 251.024 1922.96 249.024C1923.88 247.027 1925.17 245.657 1926.83 244.913C1928.52 244.146 1930.67 243.895 1933.3 244.161ZM1972.14 248.576C1973.1 248.672 1973.53 249.212 1973.43 250.193L1971.95 276.297L1968.45 275.943L1969.94 251.287L1969.1 251.203L1960.93 270.839C1960.63 271.613 1960.09 271.96 1959.29 271.88L1956.15 271.562C1955.33 271.478 1954.84 271.027 1954.68 270.207L1950.6 249.33L1949.8 249.249L1946.36 273.707L1942.86 273.352L1946.57 247.474C1946.72 246.498 1947.26 246.057 1948.19 246.151L1952.17 246.553C1952.91 246.629 1953.36 247.076 1953.52 247.896L1956.96 265.17C1957.11 265.802 1957.22 266.43 1957.29 267.053C1957.39 267.68 1957.49 268.321 1957.62 268.976L1958.33 269.049C1958.58 268.431 1958.82 267.825 1959.04 267.231C1959.26 266.637 1959.5 266.017 1959.75 265.373L1966.57 249.218C1966.86 248.443 1967.41 248.096 1968.2 248.177L1972.14 248.576ZM2001.67 251.565L1998.89 279.024L1995.51 278.682L1997.54 258.664C1997.59 258.134 1997.66 257.604 1997.74 257.076C1997.82 256.548 1997.92 256.036 1998.05 255.54L1997.85 255.52C1997.62 256.006 1997.34 256.5 1997.02 257.004C1996.7 257.481 1996.4 257.933 1996.12 258.36L1981.9 277.304L1978.32 276.942L1981.1 249.482L1984.48 249.824L1982.47 269.643C1982.42 270.2 1982.33 270.755 1982.22 271.306C1982.14 271.834 1982.05 272.361 1981.94 272.886L1982.1 272.902C1982.37 272.42 1982.66 271.94 1982.97 271.463C1983.32 270.988 1983.64 270.525 1983.96 270.075L1998.05 251.198L2001.67 251.565ZM2027.36 253.642C2029.35 253.843 2031.01 254.253 2032.34 254.87C2033.7 255.49 2034.73 256.399 2035.44 257.596C2036.18 258.77 2036.64 260.291 2036.83 262.159C2037.04 264.03 2037.01 266.305 2036.74 268.985C2036.47 271.665 2036.04 273.9 2035.46 275.69C2034.9 277.483 2034.14 278.894 2033.18 279.922C2032.25 280.926 2031.05 281.596 2029.6 281.932C2028.17 282.269 2026.46 282.338 2024.47 282.136C2022.48 281.935 2020.81 281.524 2019.45 280.904C2018.12 280.287 2017.08 279.392 2016.34 278.218C2015.61 277.018 2015.13 275.482 2014.92 273.611C2014.74 271.743 2014.78 269.469 2015.05 266.789C2015.32 264.11 2015.73 261.873 2016.29 260.08C2016.87 258.29 2017.65 256.894 2018.6 255.892C2019.57 254.864 2020.76 254.181 2022.19 253.843C2023.64 253.507 2025.37 253.44 2027.36 253.642ZM2027.04 256.786C2025.23 256.603 2023.77 256.803 2022.63 257.385C2021.53 257.971 2020.67 259.049 2020.06 260.622C2019.47 262.171 2019.03 264.352 2018.75 267.164C2018.47 269.95 2018.46 272.173 2018.72 273.835C2019.01 275.499 2019.63 276.728 2020.6 277.523C2021.59 278.32 2022.99 278.81 2024.79 278.992C2026.59 279.175 2028.05 278.974 2029.15 278.389C2030.28 277.806 2031.14 276.727 2031.73 275.152C2032.35 273.579 2032.79 271.4 2033.08 268.614C2033.36 265.802 2033.36 263.577 2033.07 261.94C2032.81 260.278 2032.18 259.049 2031.19 258.252C2030.23 257.457 2028.84 256.968 2027.04 256.786ZM2056.42 257.107L2053.64 284.566L2050.14 284.212L2052.92 256.752L2056.42 257.107ZM2068.37 269.694L2068.07 272.719L2054.65 271.361L2054.96 268.337L2068.37 269.694ZM2072.58 258.742L2069.8 286.202L2066.3 285.847L2069.07 258.388L2072.58 258.742ZM2090.25 260.531C2090.56 260.563 2090.83 260.684 2091.05 260.894C2091.28 261.077 2091.41 261.319 2091.46 261.619L2097.61 289.018L2093.99 288.651L2089.15 265.405C2089.08 265.023 2089 264.639 2088.9 264.255C2088.84 263.846 2088.77 263.464 2088.7 263.108L2087.58 262.995C2087.44 263.329 2087.3 263.69 2087.15 264.077C2087.01 264.438 2086.85 264.797 2086.68 265.155L2077.28 286.959L2073.66 286.593L2085.17 260.982C2085.28 260.699 2085.47 260.489 2085.72 260.354C2085.98 260.193 2086.27 260.128 2086.58 260.16L2090.25 260.531ZM2093.74 276.885L2093.43 279.91L2079.5 278.5L2079.81 275.475L2093.74 276.885ZM2113.9 262.443C2115.07 262.561 2116.06 262.688 2116.88 262.824C2117.72 262.963 2118.48 263.134 2119.16 263.337C2119.86 263.515 2120.58 263.735 2121.3 263.996L2120.67 266.626C2119.88 266.466 2119.15 266.324 2118.46 266.202C2117.81 266.081 2117.09 265.969 2116.33 265.865C2115.56 265.76 2114.65 265.654 2113.59 265.547C2111.81 265.367 2110.37 265.569 2109.26 266.155C2108.16 266.74 2107.3 267.819 2106.68 269.391C2106.09 270.967 2105.66 273.147 2105.38 275.933C2105.1 278.719 2105.08 280.942 2105.35 282.604C2105.63 284.268 2106.26 285.497 2107.22 286.292C2108.19 287.086 2109.56 287.573 2111.34 287.753C2113.04 287.925 2114.46 288.042 2115.6 288.105C2116.78 288.143 2117.93 288.14 2119.06 288.093L2119.15 290.756C2117.98 290.959 2116.78 291.065 2115.54 291.074C2114.33 291.112 2112.83 291.04 2111.02 290.858C2108.4 290.592 2106.33 289.927 2104.83 288.864C2103.36 287.777 2102.37 286.162 2101.87 284.02C2101.38 281.881 2101.32 279.061 2101.68 275.558C2102.03 272.056 2102.66 269.305 2103.56 267.306C2104.48 265.309 2105.77 263.939 2107.43 263.195C2109.12 262.428 2111.27 262.177 2113.9 262.443Z" fill="white"/>
</svg>
