<svg width="1920" height="260" viewBox="0 0 1920 260" fill="none" xmlns="http://www.w3.org/2000/svg">
<rect x="-199.529" y="183.863" width="2399" height="75" transform="rotate(-4.38131 -199.529 183.863)" fill="white"/>
<rect x="-199.529" y="183.863" width="2399" height="75" transform="rotate(-4.38131 -199.529 183.863)" stroke="#AAAAAA"/>
<path d="M-174.358 207.91L-174.031 212.177L-183.125 212.874C-184.693 212.994 -185.472 213.83 -185.46 215.38C-185.485 217.147 -185.507 218.78 -185.526 220.279C-185.547 221.752 -185.603 223.107 -185.696 224.344C-185.788 225.581 -185.914 226.728 -186.074 227.783C-186.21 228.81 -186.417 229.762 -186.698 230.639C-187.132 232.304 -187.752 233.635 -188.558 234.633C-189.364 235.631 -190.339 236.347 -191.483 236.783C-192.628 237.191 -193.925 237.371 -195.373 237.321L-196.172 232.649C-195.309 232.395 -194.559 232.057 -193.923 231.634C-193.289 231.184 -192.81 230.452 -192.487 229.438C-192.292 228.834 -192.126 228.207 -191.989 227.554C-191.854 226.875 -191.749 226.145 -191.675 225.364C-191.577 224.554 -191.512 223.653 -191.481 222.661C-191.424 221.667 -191.388 220.568 -191.373 219.363C-191.36 218.132 -191.346 216.754 -191.329 215.228C-191.342 211.217 -189.368 209.06 -185.406 208.756L-174.358 207.91ZM-173.76 207.864L-171.651 235.383L-177.754 235.851L-179.862 208.332L-173.76 207.864ZM-145.337 205.686L-143.228 233.206L-149.051 233.652L-150.304 217.3C-150.351 216.688 -150.371 216.075 -150.365 215.459C-150.361 214.817 -150.329 214.186 -150.269 213.566L-150.508 213.585C-150.672 214.239 -150.864 214.882 -151.083 215.514C-151.304 216.119 -151.538 216.726 -151.786 217.333L-159.979 234.489L-165.922 234.944L-168.03 207.425L-162.207 206.979L-160.979 223.012C-160.932 223.624 -160.923 224.265 -160.952 224.936C-160.956 225.578 -160.973 226.234 -161.001 226.905L-160.802 226.89C-160.612 226.233 -160.407 225.589 -160.188 224.957C-159.942 224.323 -159.681 223.715 -159.405 223.132L-151.279 206.142L-145.337 205.686ZM-117.503 203.554L-115.394 231.073L-121.496 231.541L-123.278 208.289L-126.907 208.567C-127.678 208.626 -128.236 208.856 -128.579 209.257C-128.923 209.657 -129.09 210.272 -129.08 211.1C-129.087 213.107 -129.134 214.929 -129.223 216.567C-129.311 218.205 -129.462 219.728 -129.675 221.135C-129.864 222.514 -130.137 223.832 -130.495 225.089C-130.829 226.318 -131.257 227.541 -131.779 228.758C-132.303 229.948 -132.93 231.186 -133.661 232.473L-138.806 232.867C-137.707 230.456 -136.876 228.025 -136.315 225.575C-135.756 223.099 -135.372 220.609 -135.163 218.105C-134.955 215.576 -134.854 213.054 -134.86 210.54C-134.855 208.855 -134.347 207.452 -133.337 206.332C-132.299 205.209 -130.877 204.578 -129.069 204.44L-117.503 203.554ZM-134.879 232.285L-134.874 238.623L-139.261 238.96L-139.744 232.658L-134.879 232.285ZM-112.132 226.531L-111.805 230.798L-139.723 232.937L-140.05 228.67L-112.132 226.531ZM-111.826 230.519L-111.343 236.82L-115.691 237.154L-116.652 230.889L-111.826 230.519ZM-97.1112 201.991C-96.606 201.953 -96.1561 202.065 -95.7614 202.329C-95.3402 202.591 -95.0447 202.956 -94.8751 203.425L-84.9123 228.738L-91.134 229.214L-98.3068 209.425C-98.4478 208.981 -98.5888 208.537 -98.7298 208.093C-98.8728 207.622 -99.0005 207.178 -99.1129 206.758L-100.19 206.841C-100.237 207.272 -100.295 207.731 -100.365 208.218C-100.41 208.676 -100.482 209.136 -100.58 209.599L-104.654 230.25L-110.916 230.73L-104.886 204.192C-104.79 203.703 -104.566 203.298 -104.217 202.977C-103.84 202.654 -103.399 202.473 -102.894 202.435L-97.1112 201.991ZM-91.6826 217.342L-91.3312 221.928L-105.609 223.022L-105.961 218.436L-91.6826 217.342ZM-52.7954 198.596L-50.687 226.115L-56.5099 226.562L-57.7627 210.209C-57.8096 209.598 -57.8299 208.984 -57.8235 208.369C-57.8193 207.727 -57.7874 207.096 -57.7279 206.476L-57.9672 206.494C-58.131 207.149 -58.3224 207.792 -58.5414 208.424C-58.7625 209.029 -58.9969 209.635 -59.2445 210.243L-67.4379 227.399L-73.3804 227.854L-75.4889 200.335L-69.666 199.889L-68.4376 215.922C-68.3907 216.533 -68.3817 217.174 -68.4105 217.845C-68.4148 218.487 -68.4314 219.144 -68.4602 219.815L-68.2608 219.8C-68.0704 219.143 -67.8657 218.499 -67.6466 217.867C-67.401 217.233 -67.1401 216.625 -66.8638 216.042L-58.738 199.051L-52.7954 198.596ZM-26.2376 196.561L-25.9107 200.829L-35.004 201.525C-36.5728 201.646 -37.3512 202.481 -37.3394 204.031C-37.3645 205.798 -37.3865 207.431 -37.4053 208.931C-37.4262 210.403 -37.4829 211.758 -37.5753 212.995C-37.6677 214.233 -37.7938 215.379 -37.9537 216.434C-38.089 217.461 -38.2969 218.413 -38.5773 219.29C-39.0114 220.955 -39.6315 222.286 -40.4377 223.284C-41.2438 224.282 -42.2186 224.999 -43.362 225.434C-44.5074 225.843 -45.8042 226.022 -47.2522 225.973L-48.0515 221.3C-47.1883 221.047 -46.4386 220.708 -45.8024 220.285C-45.1683 219.835 -44.6895 219.103 -44.366 218.089C-44.1715 217.486 -44.0057 216.858 -43.8685 216.206C-43.7333 215.527 -43.6287 214.796 -43.5549 214.015C-43.4564 213.205 -43.3918 212.304 -43.3608 211.312C-43.3032 210.319 -43.2671 209.219 -43.2524 208.015C-43.2398 206.783 -43.225 205.405 -43.2082 203.879C-43.2213 199.868 -41.247 197.711 -37.2853 197.408L-26.2376 196.561ZM-25.6394 196.515L-23.5309 224.035L-29.633 224.502L-31.7415 196.983L-25.6394 196.515ZM2.78387 194.338L4.89234 221.857L-0.930593 222.303L-2.18345 205.951C-2.23031 205.34 -2.25057 204.726 -2.24425 204.11C-2.23997 203.468 -2.20807 202.837 -2.14857 202.218L-2.38787 202.236C-2.55169 202.89 -2.74311 203.533 -2.96215 204.165C-3.18322 204.771 -3.41758 205.377 -3.66524 205.984L-11.8586 223.14L-17.8011 223.596L-19.9096 196.076L-14.0867 195.63L-12.8583 211.663C-12.8114 212.275 -12.8024 212.916 -12.8312 213.587C-12.8355 214.229 -12.8521 214.886 -12.8809 215.556L-12.6815 215.541C-12.4911 214.885 -12.2864 214.24 -12.0674 213.609C-11.8217 212.975 -11.5608 212.366 -11.2845 211.783L-3.15871 194.793L2.78387 194.338ZM39.2255 191.546L41.334 219.065L35.2319 219.533L33.4504 196.281L29.821 196.559C29.0499 196.618 28.4925 196.848 28.1488 197.249C27.8051 197.649 27.6382 198.264 27.6482 199.092C27.6414 201.099 27.5938 202.921 27.5054 204.559C27.417 206.197 27.2662 207.72 27.053 209.127C26.8645 210.505 26.591 211.823 26.2327 213.081C25.899 214.31 25.4711 215.533 24.9492 216.75C24.4253 217.94 23.798 219.178 23.0675 220.465L17.9226 220.859C19.0216 218.448 19.8517 216.017 20.4128 213.567C20.9719 211.091 21.3562 208.601 21.5656 206.097C21.7729 203.567 21.8739 201.046 21.8685 198.532C21.8731 196.847 22.3807 195.444 23.3914 194.323C24.4287 193.201 25.8514 192.57 27.6594 192.432L39.2255 191.546ZM21.8496 220.277L21.8538 226.615L17.4667 226.951L16.9839 220.65L21.8496 220.277ZM44.5965 214.522L44.9235 218.79L17.0053 220.929L16.6783 216.662L44.5965 214.522ZM44.9021 218.511L45.3849 224.812L41.0376 225.145L40.0762 218.881L44.9021 218.511ZM59.617 189.983C60.1222 189.945 60.5721 190.057 60.9667 190.321C61.388 190.583 61.6834 190.948 61.853 191.417L71.8159 216.73L65.5941 217.206L58.4213 197.416C58.2803 196.973 58.1394 196.529 57.9984 196.085C57.8553 195.614 57.7277 195.169 57.6153 194.75L56.5385 194.833C56.4913 195.264 56.4329 195.723 56.3632 196.21C56.318 196.668 56.2463 197.128 56.148 197.591L52.0737 218.242L45.8121 218.722L51.8424 192.184C51.9386 191.695 52.1617 191.29 52.5115 190.969C52.8879 190.646 53.3288 190.465 53.8339 190.426L59.617 189.983ZM65.0455 205.333L65.3969 209.92L51.1188 211.014L50.7674 206.427L65.0455 205.333Z" fill="black"/>
<circle cx="111.931" cy="197.609" r="7" transform="rotate(-4.38131 111.931 197.609)" stroke="#5759DF" stroke-width="6"/>
<path d="M154.162 182.258C155.332 182.168 156.331 182.118 157.16 182.108C158.014 182.096 158.793 182.13 159.494 182.21C160.22 182.262 160.963 182.352 161.721 182.481L161.567 185.181C160.763 185.162 160.014 185.153 159.318 185.152C158.65 185.15 157.929 185.165 157.156 185.198C156.382 185.23 155.464 185.287 154.401 185.369C152.619 185.505 151.236 185.959 150.252 186.73C149.268 187.5 148.613 188.714 148.285 190.371C147.984 192.025 147.94 194.248 148.154 197.04C148.368 199.832 148.75 202.022 149.299 203.612C149.876 205.199 150.709 206.299 151.799 206.91C152.889 207.522 154.324 207.76 156.106 207.623C157.807 207.493 159.228 207.358 160.367 207.217C161.531 207.047 162.665 206.84 163.769 206.595L164.33 209.2C163.211 209.606 162.045 209.923 160.832 210.15C159.648 210.401 158.152 210.596 156.344 210.734C153.712 210.936 151.563 210.646 149.899 209.864C148.259 209.054 147 207.639 146.123 205.62C145.273 203.599 144.714 200.834 144.445 197.324C144.176 193.814 144.308 190.996 144.84 188.869C145.399 186.74 146.428 185.164 147.928 184.14C149.452 183.087 151.53 182.46 154.162 182.258ZM193.177 179.75C194.134 179.677 194.651 180.132 194.726 181.116L197.878 207.071L194.368 207.34L191.486 182.808L190.648 182.872L186.062 203.643C185.91 204.457 185.435 204.895 184.638 204.956L181.487 205.197C180.663 205.261 180.1 204.902 179.8 204.123L172.103 184.293L171.305 184.354L172.233 209.036L168.723 209.304L167.805 183.178C167.783 182.19 168.237 181.661 169.167 181.59L173.156 181.284C173.9 181.227 174.423 181.588 174.723 182.367L181.155 198.764C181.414 199.359 181.634 199.958 181.814 200.559C182.02 201.158 182.241 201.77 182.476 202.394L183.194 202.339C183.331 201.686 183.456 201.048 183.568 200.424C183.681 199.801 183.805 199.149 183.94 198.47L187.805 181.365C187.956 180.551 188.431 180.114 189.229 180.053L193.177 179.75ZM222.769 177.483L224.877 205.002L221.487 205.262L219.95 185.201C219.909 184.669 219.882 184.136 219.868 183.602C219.853 183.068 219.867 182.546 219.908 182.035L219.708 182.05C219.561 182.569 219.375 183.105 219.15 183.657C218.922 184.183 218.707 184.681 218.502 185.151L207.847 206.307L204.257 206.582L202.149 179.063L205.539 178.803L207.061 198.665C207.104 199.223 207.12 199.783 207.109 200.346C207.123 200.88 207.124 201.414 207.112 201.95L207.271 201.938C207.445 201.417 207.646 200.893 207.873 200.368C208.127 199.84 208.368 199.327 208.598 198.828L219.139 177.761L222.769 177.483ZM248.416 174.996C250.41 174.843 252.117 174.953 253.536 175.326C254.982 175.697 256.16 176.409 257.07 177.462C258.004 178.487 258.728 179.903 259.24 181.709C259.78 183.513 260.152 185.758 260.358 188.443C260.564 191.129 260.538 193.404 260.279 195.269C260.048 197.132 259.549 198.655 258.784 199.837C258.043 200.99 256.987 201.86 255.614 202.447C254.268 203.031 252.598 203.4 250.604 203.553C248.61 203.705 246.89 203.596 245.444 203.226C244.025 202.853 242.848 202.154 241.913 201.129C240.977 200.078 240.239 198.65 239.7 196.846C239.187 195.04 238.828 192.794 238.622 190.109C238.416 187.423 238.429 185.149 238.661 183.286C238.919 181.42 239.432 179.91 240.199 178.755C240.964 177.573 242.02 176.69 243.366 176.105C244.738 175.519 246.422 175.149 248.416 174.996ZM248.657 178.147C246.849 178.285 245.44 178.741 244.429 179.514C243.445 180.285 242.79 181.498 242.462 183.155C242.159 184.783 242.115 187.006 242.331 189.824C242.545 192.616 242.927 194.807 243.476 196.396C244.053 197.983 244.886 199.083 245.976 199.695C247.092 200.305 248.554 200.54 250.363 200.402C252.171 200.263 253.567 199.809 254.551 199.038C255.561 198.265 256.217 197.051 256.518 195.397C256.846 193.74 256.903 191.516 256.689 188.724C256.473 185.906 256.078 183.716 255.504 182.156C254.954 180.566 254.121 179.467 253.004 178.857C251.914 178.245 250.465 178.008 248.657 178.147ZM277.635 173.279L279.744 200.798L276.234 201.067L274.125 173.548L277.635 173.279ZM291.622 183.561L291.854 186.592L278.413 187.622L278.181 184.59L291.622 183.561ZM293.828 172.038L295.936 199.558L292.426 199.827L290.318 172.307L293.828 172.038ZM311.535 170.682C311.854 170.657 312.14 170.729 312.394 170.897C312.645 171.038 312.822 171.252 312.924 171.538L323.813 197.422L320.184 197.7L311.315 175.673C311.18 175.309 311.032 174.946 310.871 174.584C310.734 174.193 310.599 173.829 310.466 173.492L309.349 173.577C309.27 173.931 309.192 174.311 309.116 174.718C309.038 175.099 308.947 175.48 308.843 175.863L303.433 198.983L299.804 199.261L306.623 172.021C306.68 171.722 306.822 171.484 307.049 171.306C307.274 171.102 307.546 170.987 307.865 170.963L311.535 170.682ZM317.856 186.164L318.088 189.195L304.129 190.265L303.897 187.234L317.856 186.164ZM335.155 168.391C336.325 168.301 337.324 168.251 338.152 168.241C339.007 168.229 339.786 168.263 340.487 168.343C341.213 168.394 341.956 168.485 342.714 168.614L342.56 171.313C341.756 171.295 341.007 171.285 340.311 171.285C339.643 171.283 338.922 171.298 338.148 171.33C337.375 171.363 336.457 171.42 335.394 171.501C333.612 171.638 332.229 172.092 331.245 172.862C330.261 173.633 329.605 174.847 329.278 176.503C328.977 178.158 328.933 180.381 329.147 183.173C329.361 185.965 329.743 188.155 330.292 189.744C330.869 191.332 331.702 192.431 332.792 193.043C333.881 193.655 335.317 193.893 337.099 193.756C338.8 193.626 340.221 193.49 341.36 193.349C342.524 193.18 343.658 192.973 344.762 192.728L345.323 195.333C344.204 195.739 343.038 196.056 341.825 196.283C340.641 196.534 339.145 196.729 337.337 196.867C334.705 197.069 332.556 196.779 330.892 195.997C329.252 195.187 327.993 193.772 327.116 191.753C326.266 189.732 325.707 186.967 325.438 183.457C325.169 179.947 325.301 177.129 325.833 175.002C326.392 172.873 327.421 171.297 328.921 170.272C330.445 169.22 332.523 168.592 335.155 168.391Z" fill="black"/>
<circle cx="376.157" cy="177.365" r="7" transform="rotate(-4.38131 376.157 177.365)" stroke="#5759DF" stroke-width="6"/>
<path d="M428.874 161.692L429.201 165.959L420.107 166.656C418.539 166.776 417.76 167.611 417.772 169.162C417.747 170.929 417.725 172.562 417.706 174.061C417.685 175.534 417.629 176.888 417.536 178.126C417.444 179.363 417.318 180.509 417.158 181.565C417.022 182.591 416.815 183.543 416.534 184.421C416.1 186.085 415.48 187.417 414.674 188.415C413.868 189.412 412.893 190.129 411.749 190.564C410.604 190.973 409.307 191.153 407.859 191.103L407.06 186.43C407.923 186.177 408.673 185.839 409.309 185.416C409.943 184.966 410.422 184.234 410.745 183.219C410.94 182.616 411.106 181.988 411.243 181.336C411.378 180.657 411.483 179.927 411.557 179.146C411.655 178.336 411.72 177.435 411.751 176.443C411.808 175.449 411.844 174.35 411.859 173.145C411.872 171.914 411.886 170.535 411.903 169.01C411.89 164.999 413.864 162.842 417.826 162.538L428.874 161.692ZM429.472 161.646L431.581 189.165L425.478 189.633L423.37 162.113L429.472 161.646ZM457.895 159.468L460.004 186.987L454.181 187.434L452.928 171.082C452.881 170.47 452.861 169.856 452.867 169.241C452.871 168.599 452.903 167.968 452.963 167.348L452.724 167.366C452.56 168.021 452.368 168.664 452.149 169.296C451.928 169.901 451.694 170.507 451.446 171.115L443.253 188.271L437.31 188.726L435.202 161.207L441.025 160.761L442.253 176.794C442.3 177.405 442.309 178.046 442.28 178.717C442.276 179.359 442.259 180.016 442.231 180.687L442.43 180.672C442.62 180.015 442.825 179.371 443.044 178.739C443.29 178.105 443.551 177.497 443.827 176.914L451.953 159.923L457.895 159.468ZM485.729 157.336L487.838 184.855L481.736 185.322L479.954 162.071L476.325 162.349C475.554 162.408 474.996 162.638 474.653 163.038C474.309 163.439 474.142 164.054 474.152 164.882C474.145 166.888 474.098 168.711 474.009 170.349C473.921 171.987 473.77 173.51 473.557 174.917C473.368 176.295 473.095 177.613 472.737 178.871C472.403 180.1 471.975 181.323 471.453 182.54C470.929 183.73 470.302 184.968 469.571 186.254L464.426 186.649C465.525 184.238 466.356 181.807 466.917 179.357C467.476 176.88 467.86 174.39 468.069 171.887C468.277 169.357 468.378 166.836 468.372 164.322C468.377 162.637 468.885 161.234 469.895 160.113C470.933 158.991 472.355 158.36 474.163 158.222L485.729 157.336ZM468.353 186.067L468.358 192.405L463.971 192.741L463.488 186.44L468.353 186.067ZM491.1 180.312L491.427 184.58L463.509 186.719L463.182 182.451L491.1 180.312ZM491.406 184.301L491.889 190.602L487.541 190.935L486.58 184.67L491.406 184.301ZM506.121 155.773C506.626 155.734 507.076 155.847 507.471 156.111C507.892 156.373 508.187 156.738 508.357 157.207L518.32 182.519L512.098 182.996L504.925 163.206C504.784 162.762 504.643 162.319 504.502 161.875C504.359 161.404 504.232 160.959 504.119 160.54L503.042 160.623C502.995 161.054 502.937 161.513 502.867 162C502.822 162.458 502.75 162.918 502.652 163.38L498.578 184.032L492.316 184.512L498.346 157.974C498.442 157.485 498.666 157.08 499.015 156.759C499.392 156.436 499.833 156.255 500.338 156.216L506.121 155.773ZM511.549 171.123L511.901 175.71L497.623 176.804L497.271 172.217L511.549 171.123ZM550.437 152.378L552.545 179.897L546.722 180.343L545.469 163.991C545.422 163.38 545.402 162.766 545.408 162.15C545.413 161.508 545.445 160.877 545.504 160.258L545.265 160.276C545.101 160.93 544.91 161.574 544.691 162.206C544.47 162.811 544.235 163.417 543.987 164.025L535.794 181.181L529.852 181.636L527.743 154.117L533.566 153.67L534.794 169.703C534.841 170.315 534.85 170.956 534.821 171.627C534.817 172.269 534.801 172.926 534.772 173.597L534.971 173.581C535.162 172.925 535.366 172.281 535.585 171.649C535.831 171.015 536.092 170.406 536.368 169.824L544.494 152.833L550.437 152.378ZM576.994 150.343L577.321 154.611L568.228 155.307C566.659 155.427 565.881 156.263 565.893 157.813C565.868 159.58 565.846 161.213 565.827 162.712C565.806 164.185 565.749 165.54 565.657 166.777C565.564 168.015 565.438 169.161 565.278 170.216C565.143 171.243 564.935 172.195 564.655 173.072C564.221 174.737 563.6 176.068 562.794 177.066C561.988 178.064 561.013 178.78 559.87 179.216C558.725 179.624 557.428 179.804 555.98 179.754L555.181 175.082C556.044 174.828 556.793 174.49 557.43 174.067C558.064 173.617 558.543 172.885 558.866 171.871C559.06 171.268 559.226 170.64 559.364 169.987C559.499 169.308 559.603 168.578 559.677 167.797C559.776 166.987 559.84 166.086 559.871 165.094C559.929 164.1 559.965 163.001 559.98 161.796C559.992 160.565 560.007 159.187 560.024 157.661C560.011 153.65 561.985 151.493 565.947 151.189L576.994 150.343ZM577.593 150.297L579.701 177.817L573.599 178.284L571.491 150.765L577.593 150.297ZM606.016 148.119L608.124 175.639L602.301 176.085L601.049 159.733C601.002 159.121 600.981 158.508 600.988 157.892C600.992 157.25 601.024 156.619 601.083 155.999L600.844 156.018C600.68 156.672 600.489 157.315 600.27 157.947C600.049 158.552 599.814 159.159 599.567 159.766L591.373 176.922L585.431 177.378L583.322 149.858L589.145 149.412L590.374 165.445C590.421 166.057 590.43 166.698 590.401 167.369C590.396 168.011 590.38 168.667 590.351 169.338L590.55 169.323C590.741 168.666 590.946 168.022 591.165 167.39C591.41 166.756 591.671 166.148 591.948 165.565L600.073 148.575L606.016 148.119ZM642.458 145.327L644.566 172.847L638.464 173.314L636.682 150.062L633.053 150.34C632.282 150.4 631.725 150.629 631.381 151.03C631.037 151.431 630.87 152.046 630.88 152.874C630.873 154.88 630.826 156.703 630.737 158.341C630.649 159.979 630.498 161.502 630.285 162.909C630.096 164.287 629.823 165.605 629.465 166.863C629.131 168.092 628.703 169.315 628.181 170.532C627.657 171.722 627.03 172.96 626.3 174.246L621.155 174.64C622.254 172.229 623.084 169.799 623.645 167.349C624.204 164.872 624.588 162.382 624.798 159.879C625.005 157.349 625.106 154.827 625.101 152.314C625.105 150.628 625.613 149.226 626.623 148.105C627.661 146.983 629.083 146.352 630.891 146.214L642.458 145.327ZM625.082 174.059L625.086 180.397L620.699 180.733L620.216 174.432L625.082 174.059ZM647.828 168.304L648.155 172.572L620.237 174.711L619.91 170.443L647.828 168.304ZM648.134 172.293L648.617 178.594L644.27 178.927L643.308 172.662L648.134 172.293ZM662.849 143.765C663.354 143.726 663.804 143.839 664.199 144.103C664.62 144.365 664.915 144.73 665.085 145.198L675.048 170.511L668.826 170.988L661.653 151.198C661.512 150.754 661.371 150.31 661.23 149.867C661.087 149.396 660.96 148.951 660.847 148.532L659.77 148.614C659.723 149.046 659.665 149.505 659.595 149.992C659.55 150.45 659.478 150.91 659.38 151.372L655.306 172.024L649.044 172.504L655.074 145.965C655.171 145.477 655.394 145.072 655.744 144.751C656.12 144.428 656.561 144.247 657.066 144.208L662.849 143.765ZM668.278 159.115L668.629 163.702L654.351 164.796L653.999 160.209L668.278 159.115Z" fill="black"/>
<circle cx="715.164" cy="151.391" r="7" transform="rotate(-4.38131 715.164 151.391)" stroke="#5759DF" stroke-width="6"/>
<path d="M757.394 136.04C758.564 135.95 759.563 135.9 760.392 135.89C761.246 135.878 762.025 135.912 762.726 135.992C763.452 136.043 764.195 136.134 764.953 136.263L764.799 138.962C763.995 138.944 763.246 138.934 762.55 138.934C761.882 138.932 761.161 138.947 760.388 138.979C759.614 139.012 758.696 139.069 757.633 139.15C755.851 139.287 754.468 139.741 753.484 140.511C752.5 141.282 751.845 142.496 751.517 144.152C751.216 145.807 751.172 148.03 751.386 150.822C751.6 153.614 751.982 155.804 752.531 157.393C753.108 158.981 753.941 160.08 755.031 160.692C756.121 161.304 757.556 161.542 759.338 161.405C761.039 161.275 762.46 161.139 763.599 160.998C764.763 160.829 765.897 160.622 767.001 160.377L767.562 162.982C766.443 163.388 765.277 163.705 764.064 163.932C762.88 164.183 761.384 164.378 759.576 164.516C756.944 164.718 754.795 164.428 753.131 163.646C751.491 162.836 750.232 161.421 749.355 159.402C748.505 157.381 747.946 154.616 747.677 151.106C747.408 147.596 747.54 144.778 748.072 142.651C748.631 140.522 749.66 138.946 751.16 137.921C752.684 136.869 754.762 136.241 757.394 136.04ZM796.409 133.532C797.366 133.458 797.883 133.914 797.958 134.897L801.11 160.852L797.6 161.121L794.718 136.59L793.88 136.654L789.294 157.425C789.142 158.239 788.667 158.677 787.87 158.738L784.719 158.979C783.895 159.042 783.332 158.684 783.032 157.905L775.335 138.075L774.537 138.136L775.465 162.817L771.955 163.086L771.037 136.96C771.015 135.972 771.469 135.443 772.4 135.371L776.388 135.066C777.132 135.009 777.655 135.37 777.955 136.149L784.387 152.546C784.646 153.141 784.866 153.739 785.046 154.341C785.252 154.94 785.473 155.552 785.708 156.175L786.426 156.12C786.563 155.468 786.688 154.83 786.8 154.206C786.913 153.582 787.037 152.931 787.172 152.252L791.037 135.147C791.188 134.333 791.663 133.895 792.461 133.834L796.409 133.532ZM826.001 131.265L828.109 158.784L824.719 159.044L823.182 138.982C823.141 138.451 823.114 137.918 823.1 137.384C823.085 136.85 823.099 136.328 823.14 135.816L822.94 135.832C822.793 136.351 822.607 136.887 822.382 137.439C822.154 137.965 821.939 138.463 821.734 138.933L811.079 160.089L807.489 160.364L805.381 132.844L808.771 132.585L810.293 152.446C810.336 153.005 810.352 153.565 810.341 154.128C810.356 154.661 810.356 155.196 810.344 155.732L810.503 155.72C810.677 155.198 810.878 154.675 811.105 154.149C811.359 153.622 811.601 153.108 811.83 152.609L822.371 131.543L826.001 131.265ZM851.648 128.778C853.642 128.625 855.349 128.735 856.768 129.108C858.214 129.478 859.392 130.19 860.302 131.244C861.236 132.269 861.96 133.685 862.472 135.491C863.012 137.295 863.384 139.539 863.59 142.225C863.796 144.91 863.77 147.186 863.511 149.051C863.28 150.914 862.781 152.437 862.016 153.618C861.275 154.772 860.219 155.642 858.846 156.228C857.5 156.813 855.83 157.181 853.836 157.334C851.842 157.487 850.122 157.378 848.676 157.007C847.257 156.635 846.08 155.936 845.145 154.911C844.209 153.86 843.471 152.432 842.932 150.628C842.419 148.822 842.06 146.576 841.854 143.89C841.648 141.205 841.661 138.931 841.893 137.067C842.151 135.202 842.664 133.692 843.431 132.537C844.196 131.355 845.252 130.472 846.598 129.887C847.971 129.3 849.654 128.931 851.648 128.778ZM851.889 131.929C850.081 132.067 848.672 132.523 847.661 133.296C846.678 134.066 846.022 135.28 845.694 136.937C845.391 138.565 845.347 140.788 845.563 143.606C845.777 146.398 846.159 148.589 846.708 150.178C847.285 151.765 848.118 152.865 849.208 153.477C850.324 154.086 851.787 154.322 853.595 154.183C855.403 154.045 856.799 153.59 857.783 152.82C858.793 152.047 859.449 150.833 859.75 149.179C860.078 147.522 860.135 145.298 859.921 142.506C859.705 139.688 859.31 137.498 858.736 135.937C858.186 134.348 857.353 133.249 856.236 132.639C855.146 132.027 853.697 131.79 851.889 131.929ZM880.867 127.061L882.976 154.58L879.466 154.849L877.358 127.33L880.867 127.061ZM894.854 137.342L895.086 140.373L881.645 141.403L881.413 138.372L894.854 137.342ZM897.06 125.82L899.168 153.339L895.659 153.608L893.55 126.089L897.06 125.82ZM914.767 124.463C915.086 124.439 915.372 124.511 915.626 124.678C915.877 124.82 916.054 125.033 916.156 125.32L927.045 151.204L923.416 151.482L914.547 129.455C914.412 129.091 914.264 128.728 914.103 128.366C913.966 127.975 913.831 127.611 913.698 127.273L912.581 127.359C912.502 127.713 912.424 128.093 912.348 128.5C912.27 128.88 912.179 129.262 912.075 129.644L906.665 152.765L903.036 153.043L909.855 125.803C909.912 125.504 910.054 125.266 910.281 125.088C910.506 124.883 910.778 124.769 911.097 124.745L914.767 124.463ZM921.088 139.946L921.32 142.977L907.361 144.046L907.129 141.015L921.088 139.946ZM938.387 122.172C939.557 122.083 940.556 122.033 941.385 122.023C942.239 122.011 943.018 122.045 943.719 122.125C944.445 122.176 945.188 122.266 945.946 122.395L945.792 125.095C944.988 125.077 944.239 125.067 943.543 125.067C942.875 125.065 942.154 125.08 941.381 125.112C940.607 125.145 939.689 125.202 938.626 125.283C936.844 125.42 935.461 125.873 934.477 126.644C933.493 127.415 932.838 128.628 932.51 130.285C932.209 131.94 932.165 134.163 932.379 136.954C932.593 139.746 932.975 141.937 933.524 143.526C934.101 145.113 934.934 146.213 936.024 146.825C937.114 147.437 938.549 147.674 940.331 147.538C942.032 147.408 943.453 147.272 944.592 147.131C945.756 146.962 946.89 146.755 947.994 146.509L948.555 149.114C947.436 149.521 946.27 149.838 945.057 150.064C943.873 150.315 942.377 150.51 940.569 150.649C937.937 150.851 935.788 150.56 934.124 149.779C932.484 148.968 931.225 147.554 930.348 145.535C929.498 143.514 928.939 140.748 928.67 137.239C928.401 133.729 928.533 130.911 929.065 128.784C929.624 126.655 930.653 125.078 932.153 124.054C933.677 123.001 935.755 122.374 938.387 122.172Z" fill="black"/>
<circle cx="979.389" cy="131.146" r="7" transform="rotate(-4.38131 979.389 131.146)" stroke="#5759DF" stroke-width="6"/>
<path d="M1032.11 115.473L1032.43 119.741L1023.34 120.438C1021.77 120.558 1020.99 121.393 1021 122.943C1020.98 124.71 1020.96 126.344 1020.94 127.843C1020.92 129.315 1020.86 130.67 1020.77 131.908C1020.68 133.145 1020.55 134.291 1020.39 135.347C1020.25 136.373 1020.05 137.325 1019.77 138.203C1019.33 139.867 1018.71 141.198 1017.91 142.196C1017.1 143.194 1016.12 143.911 1014.98 144.346C1013.84 144.755 1012.54 144.934 1011.09 144.885L1010.29 140.212C1011.16 139.959 1011.9 139.621 1012.54 139.197C1013.18 138.748 1013.65 138.016 1013.98 137.001C1014.17 136.398 1014.34 135.77 1014.48 135.118C1014.61 134.439 1014.71 133.709 1014.79 132.927C1014.89 132.117 1014.95 131.217 1014.98 130.225C1015.04 129.231 1015.08 128.131 1015.09 126.927C1015.1 125.695 1015.12 124.317 1015.14 122.791C1015.12 118.781 1017.1 116.623 1021.06 116.32L1032.11 115.473ZM1032.7 115.428L1034.81 142.947L1028.71 143.414L1026.6 115.895L1032.7 115.428ZM1061.13 113.25L1063.24 140.769L1057.41 141.215L1056.16 124.863C1056.11 124.252 1056.09 123.638 1056.1 123.023C1056.1 122.38 1056.14 121.749 1056.19 121.13L1055.96 121.148C1055.79 121.802 1055.6 122.446 1055.38 123.078C1055.16 123.683 1054.93 124.289 1054.68 124.897L1046.48 142.053L1040.54 142.508L1038.43 114.989L1044.26 114.542L1045.49 130.575C1045.53 131.187 1045.54 131.828 1045.51 132.499C1045.51 133.141 1045.49 133.798 1045.46 134.469L1045.66 134.453C1045.85 133.797 1046.06 133.153 1046.28 132.521C1046.52 131.887 1046.78 131.278 1047.06 130.696L1055.18 113.705L1061.13 113.25ZM1088.96 111.117L1091.07 138.637L1084.97 139.104L1083.19 115.852L1079.56 116.13C1078.79 116.189 1078.23 116.419 1077.88 116.82C1077.54 117.221 1077.37 117.835 1077.38 118.664C1077.38 120.67 1077.33 122.492 1077.24 124.131C1077.15 125.769 1077 127.291 1076.79 128.699C1076.6 130.077 1076.33 131.395 1075.97 132.653C1075.63 133.882 1075.21 135.105 1074.69 136.322C1074.16 137.512 1073.53 138.75 1072.8 140.036L1067.66 140.43C1068.76 138.019 1069.59 135.589 1070.15 133.139C1070.71 130.662 1071.09 128.172 1071.3 125.669C1071.51 123.139 1071.61 120.617 1071.6 118.104C1071.61 116.418 1072.12 115.016 1073.13 113.895C1074.16 112.772 1075.59 112.142 1077.4 112.003L1088.96 111.117ZM1071.59 139.849L1071.59 146.187L1067.2 146.523L1066.72 140.221L1071.59 139.849ZM1094.33 134.094L1094.66 138.362L1066.74 140.501L1066.41 136.233L1094.33 134.094ZM1094.64 138.082L1095.12 144.384L1090.77 144.717L1089.81 138.452L1094.64 138.082ZM1109.35 109.555C1109.86 109.516 1110.31 109.629 1110.7 109.893C1111.12 110.155 1111.42 110.52 1111.59 110.988L1121.55 136.301L1115.33 136.778L1108.16 116.988C1108.02 116.544 1107.88 116.1 1107.73 115.656C1107.59 115.186 1107.46 114.741 1107.35 114.322L1106.27 114.404C1106.23 114.836 1106.17 115.295 1106.1 115.782C1106.05 116.24 1105.98 116.7 1105.88 117.162L1101.81 137.814L1095.55 138.294L1101.58 111.755C1101.67 111.267 1101.9 110.862 1102.25 110.541C1102.62 110.218 1103.06 110.037 1103.57 109.998L1109.35 109.555ZM1114.78 124.905L1115.13 129.492L1100.85 130.586L1100.5 125.999L1114.78 124.905ZM1153.67 106.16L1155.78 133.679L1149.95 134.125L1148.7 117.773C1148.65 117.161 1148.63 116.548 1148.64 115.932C1148.64 115.29 1148.68 114.659 1148.74 114.039L1148.5 114.058C1148.33 114.712 1148.14 115.355 1147.92 115.987C1147.7 116.593 1147.47 117.199 1147.22 117.806L1139.03 134.962L1133.08 135.418L1130.98 107.898L1136.8 107.452L1138.03 123.485C1138.07 124.097 1138.08 124.738 1138.05 125.409C1138.05 126.051 1138.03 126.707 1138 127.378L1138.2 127.363C1138.39 126.707 1138.6 126.062 1138.82 125.43C1139.06 124.796 1139.32 124.188 1139.6 123.605L1147.73 106.615L1153.67 106.16ZM1180.23 104.125L1180.55 108.392L1171.46 109.089C1169.89 109.209 1169.11 110.044 1169.12 111.595C1169.1 113.362 1169.08 114.995 1169.06 116.494C1169.04 117.967 1168.98 119.322 1168.89 120.559C1168.8 121.796 1168.67 122.943 1168.51 123.998C1168.38 125.025 1168.17 125.977 1167.89 126.854C1167.45 128.519 1166.83 129.85 1166.03 130.848C1165.22 131.845 1164.25 132.562 1163.1 132.997C1161.96 133.406 1160.66 133.586 1159.21 133.536L1158.41 128.864C1159.28 128.61 1160.03 128.272 1160.66 127.849C1161.3 127.399 1161.77 126.667 1162.1 125.653C1162.29 125.049 1162.46 124.421 1162.6 123.769C1162.73 123.09 1162.84 122.36 1162.91 121.579C1163.01 120.769 1163.07 119.868 1163.1 118.876C1163.16 117.882 1163.2 116.783 1163.21 115.578C1163.22 114.347 1163.24 112.968 1163.26 111.443C1163.24 107.432 1165.22 105.275 1169.18 104.971L1180.23 104.125ZM1180.82 104.079L1182.93 131.598L1176.83 132.066L1174.72 104.546L1180.82 104.079ZM1209.25 101.901L1211.36 129.421L1205.53 129.867L1204.28 113.515C1204.23 112.903 1204.21 112.289 1204.22 111.674C1204.22 111.032 1204.26 110.401 1204.32 109.781L1204.08 109.799C1203.91 110.454 1203.72 111.097 1203.5 111.729C1203.28 112.334 1203.05 112.941 1202.8 113.548L1194.61 130.704L1188.66 131.159L1186.55 103.64L1192.38 103.194L1193.61 119.227C1193.65 119.838 1193.66 120.48 1193.63 121.15C1193.63 121.793 1193.61 122.449 1193.58 123.12L1193.78 123.105C1193.97 122.448 1194.18 121.804 1194.4 121.172C1194.64 120.538 1194.9 119.93 1195.18 119.347L1203.31 102.357L1209.25 101.901ZM1245.69 99.1091L1247.8 126.628L1241.7 127.096L1239.91 103.844L1236.29 104.122C1235.51 104.181 1234.96 104.411 1234.61 104.812C1234.27 105.213 1234.1 105.827 1234.11 106.656C1234.11 108.662 1234.06 110.484 1233.97 112.123C1233.88 113.761 1233.73 115.283 1233.52 116.69C1233.33 118.069 1233.06 119.387 1232.7 120.645C1232.36 121.874 1231.94 123.097 1231.41 124.313C1230.89 125.504 1230.26 126.742 1229.53 128.028L1224.39 128.422C1225.49 126.011 1226.32 123.581 1226.88 121.131C1227.44 118.654 1227.82 116.164 1228.03 113.661C1228.24 111.131 1228.34 108.609 1228.33 106.096C1228.34 104.41 1228.84 103.007 1229.86 101.887C1230.89 100.764 1232.32 100.134 1234.12 99.9953L1245.69 99.1091ZM1228.31 127.84L1228.32 134.179L1223.93 134.515L1223.45 128.213L1228.31 127.84ZM1251.06 122.086L1251.39 126.353L1223.47 128.492L1223.14 124.225L1251.06 122.086ZM1251.37 126.074L1251.85 132.376L1247.5 132.709L1246.54 126.444L1251.37 126.074ZM1266.08 97.5468C1266.59 97.5081 1267.04 97.6207 1267.43 97.8847C1267.85 98.1466 1268.15 98.5117 1268.32 98.9801L1278.28 124.293L1272.06 124.77L1264.89 104.98C1264.74 104.536 1264.6 104.092 1264.46 103.648C1264.32 103.178 1264.19 102.733 1264.08 102.314L1263 102.396C1262.96 102.828 1262.9 103.287 1262.83 103.774C1262.78 104.232 1262.71 104.692 1262.61 105.154L1258.54 125.806L1252.28 126.285L1258.31 99.7471C1258.4 99.2584 1258.63 98.8535 1258.98 98.5325C1259.35 98.2094 1259.79 98.0286 1260.3 97.9899L1266.08 97.5468ZM1271.51 112.897L1271.86 117.483L1257.58 118.577L1257.23 113.991L1271.51 112.897Z" fill="black"/>
<circle cx="1318.4" cy="105.173" r="7" transform="rotate(-4.38131 1318.4 105.173)" stroke="#5759DF" stroke-width="6"/>
<path d="M1360.63 89.8213C1361.8 89.7317 1362.8 89.6819 1363.62 89.6719C1364.48 89.6599 1365.26 89.6939 1365.96 89.7738C1366.68 89.8252 1367.43 89.9154 1368.19 90.0445L1368.03 92.7442C1367.23 92.7255 1366.48 92.7161 1365.78 92.7159C1365.11 92.7136 1364.39 92.7287 1363.62 92.7612C1362.85 92.7937 1361.93 92.8507 1360.86 92.9322C1359.08 93.0687 1357.7 93.5223 1356.72 94.2931C1355.73 95.0638 1355.08 96.2775 1354.75 97.934C1354.45 99.5885 1354.4 101.812 1354.62 104.604C1354.83 107.395 1355.21 109.586 1355.76 111.175C1356.34 112.762 1357.17 113.862 1358.26 114.474C1359.35 115.086 1360.79 115.323 1362.57 115.187C1364.27 115.057 1365.69 114.921 1366.83 114.78C1367.99 114.611 1369.13 114.404 1370.23 114.158L1370.79 116.763C1369.68 117.17 1368.51 117.487 1367.3 117.713C1366.11 117.964 1364.62 118.159 1362.81 118.298C1360.18 118.5 1358.03 118.209 1356.36 117.428C1354.72 116.617 1353.46 115.203 1352.59 113.184C1351.74 111.163 1351.18 108.397 1350.91 104.888C1350.64 101.378 1350.77 98.5597 1351.3 96.4328C1351.86 94.3039 1352.89 92.7273 1354.39 91.7031C1355.92 90.6502 1357.99 90.023 1360.63 89.8213ZM1399.64 87.3135C1400.6 87.2401 1401.11 87.6954 1401.19 88.6791L1404.34 114.634L1400.83 114.903L1397.95 90.3716L1397.11 90.4358L1392.53 111.207C1392.37 112.021 1391.9 112.458 1391.1 112.519L1387.95 112.761C1387.13 112.824 1386.56 112.466 1386.26 111.687L1378.57 91.8567L1377.77 91.9178L1378.7 116.599L1375.19 116.868L1374.27 90.7418C1374.25 89.7539 1374.7 89.2243 1375.63 89.153L1379.62 88.8475C1380.36 88.7904 1380.89 89.1516 1381.19 89.9309L1387.62 106.327C1387.88 106.923 1388.1 107.521 1388.28 108.122C1388.48 108.722 1388.7 109.333 1388.94 109.957L1389.66 109.902C1389.79 109.25 1389.92 108.612 1390.03 107.988C1390.15 107.364 1390.27 106.713 1390.4 106.034L1394.27 88.9286C1394.42 88.1147 1394.9 87.6771 1395.69 87.616L1399.64 87.3135ZM1429.23 85.0463L1431.34 112.566L1427.95 112.825L1426.41 92.7641C1426.37 92.2324 1426.35 91.6996 1426.33 91.1658C1426.32 90.6319 1426.33 90.1094 1426.37 89.5981L1426.17 89.6134C1426.03 90.1328 1425.84 90.6686 1425.61 91.2208C1425.39 91.7463 1425.17 92.2443 1424.97 92.7146L1414.31 113.87L1410.72 114.145L1408.61 86.6261L1412 86.3663L1413.52 106.228C1413.57 106.786 1413.58 107.347 1413.57 107.909C1413.59 108.443 1413.59 108.978 1413.58 109.514L1413.74 109.502C1413.91 108.98 1414.11 108.457 1414.34 107.931C1414.59 107.403 1414.83 106.89 1415.06 106.391L1425.6 85.3243L1429.23 85.0463ZM1454.88 82.5597C1456.87 82.4069 1458.58 82.5168 1460 82.8895C1461.45 83.2601 1462.62 83.9722 1463.53 85.0258C1464.47 86.0507 1465.19 87.4663 1465.7 89.2724C1466.24 91.0764 1466.62 93.3212 1466.82 96.0067C1467.03 98.6921 1467 100.967 1466.74 102.833C1466.51 104.696 1466.01 106.218 1465.25 107.4C1464.51 108.554 1463.45 109.423 1462.08 110.01C1460.73 110.595 1459.06 110.963 1457.07 111.116C1455.07 111.269 1453.35 111.16 1451.91 110.789C1450.49 110.417 1449.31 109.718 1448.38 108.693C1447.44 107.641 1446.7 106.213 1446.16 104.409C1445.65 102.603 1445.29 100.358 1445.09 97.6721C1444.88 94.9866 1444.89 92.7123 1445.12 90.8491C1445.38 88.984 1445.9 87.4737 1446.66 86.3184C1447.43 85.1365 1448.48 84.2532 1449.83 83.6687C1451.2 83.0821 1452.89 82.7125 1454.88 82.5597ZM1455.12 85.7104C1453.31 85.849 1451.9 86.3046 1450.89 87.0774C1449.91 87.8482 1449.25 89.0618 1448.93 90.7184C1448.62 92.3463 1448.58 94.5695 1448.8 97.3879C1449.01 100.18 1449.39 102.37 1449.94 103.96C1450.52 105.547 1451.35 106.646 1452.44 107.258C1453.56 107.868 1455.02 108.104 1456.83 107.965C1458.63 107.827 1460.03 107.372 1461.01 106.601C1462.03 105.829 1462.68 104.615 1462.98 102.96C1463.31 101.304 1463.37 99.0796 1463.15 96.2878C1462.94 93.4694 1462.54 91.2798 1461.97 89.7191C1461.42 88.1298 1460.58 87.0303 1459.47 86.4204C1458.38 85.8086 1456.93 85.5719 1455.12 85.7104ZM1484.1 80.8425L1486.21 108.362L1482.7 108.631L1480.59 81.1114L1484.1 80.8425ZM1498.09 91.1241L1498.32 94.1552L1484.88 95.185L1484.64 92.1539L1498.09 91.1241ZM1500.29 79.6019L1502.4 107.121L1498.89 107.39L1496.78 79.8708L1500.29 79.6019ZM1518 78.2452C1518.32 78.2208 1518.6 78.2924 1518.86 78.4602C1519.11 78.6014 1519.29 78.8152 1519.39 79.1016L1530.28 104.985L1526.65 105.263L1517.78 83.2365C1517.64 82.8725 1517.5 82.5094 1517.33 82.1473C1517.2 81.7566 1517.06 81.3925 1516.93 81.055L1515.81 81.1406C1515.73 81.4944 1515.66 81.8748 1515.58 82.2818C1515.5 82.6622 1515.41 83.0436 1515.31 83.426L1509.9 106.547L1506.27 106.825L1513.09 79.5844C1513.14 79.2858 1513.29 79.0476 1513.51 78.8697C1513.74 78.6652 1514.01 78.5508 1514.33 78.5263L1518 78.2452ZM1524.32 93.7275L1524.55 96.7587L1510.59 97.8282L1510.36 94.7971L1524.32 93.7275ZM1541.62 75.954C1542.79 75.8644 1543.79 75.8146 1544.62 75.8046C1545.47 75.7926 1546.25 75.8266 1546.95 75.9066C1547.68 75.9579 1548.42 76.0481 1549.18 76.1772L1549.02 78.8769C1548.22 78.8582 1547.47 78.8488 1546.78 78.8486C1546.11 78.8464 1545.39 78.8615 1544.61 78.894C1543.84 78.9265 1542.92 78.9834 1541.86 79.0649C1540.08 79.2014 1538.69 79.655 1537.71 80.4258C1536.73 81.1966 1536.07 82.4102 1535.74 84.0667C1535.44 85.7213 1535.4 87.9444 1535.61 90.7362C1535.82 93.5281 1536.21 95.7186 1536.76 97.3079C1537.33 98.8952 1538.17 99.9948 1539.26 100.607C1540.35 101.219 1541.78 101.456 1543.56 101.32C1545.26 101.189 1546.68 101.054 1547.82 100.913C1548.99 100.744 1550.12 100.536 1551.23 100.291L1551.79 102.896C1550.67 103.303 1549.5 103.619 1548.29 103.846C1547.11 104.097 1545.61 104.292 1543.8 104.431C1541.17 104.632 1539.02 104.342 1537.36 103.56C1535.72 102.75 1534.46 101.335 1533.58 99.3164C1532.73 97.2955 1532.17 94.5301 1531.9 91.0204C1531.63 87.5107 1531.76 84.6924 1532.3 82.5655C1532.86 80.4366 1533.89 78.86 1535.38 77.8358C1536.91 76.783 1538.99 76.1557 1541.62 75.954Z" fill="black"/>
<circle cx="1582.62" cy="84.928" r="7" transform="rotate(-4.38131 1582.62 84.928)" stroke="#5759DF" stroke-width="6"/>
<path d="M1635.34 69.2552L1635.66 73.5227L1626.57 74.2194C1625 74.3396 1624.22 75.1748 1624.24 76.7251C1624.21 78.4922 1624.19 80.1253 1624.17 81.6244C1624.15 83.097 1624.09 84.452 1624 85.6893C1623.91 86.9267 1623.78 88.073 1623.62 89.1283C1623.49 90.1549 1623.28 91.1069 1623 91.9843C1622.56 93.649 1621.94 94.9802 1621.14 95.978C1620.33 96.9759 1619.36 97.6924 1618.21 98.1277C1617.07 98.5364 1615.77 98.716 1614.32 98.6665L1613.52 93.9939C1614.39 93.7405 1615.14 93.4023 1615.77 92.9791C1616.41 92.5294 1616.89 91.7973 1617.21 90.783C1617.4 90.1797 1617.57 89.5518 1617.71 88.8995C1617.84 88.2205 1617.95 87.4904 1618.02 86.7091C1618.12 85.8992 1618.18 84.9983 1618.21 84.0064C1618.27 83.0124 1618.31 81.9131 1618.32 80.7085C1618.34 79.4772 1618.35 78.0987 1618.37 76.573C1618.35 72.5623 1620.33 70.4051 1624.29 70.1016L1635.34 69.2552ZM1635.94 69.2093L1638.04 96.7287L1631.94 97.1962L1629.83 69.6769L1635.94 69.2093ZM1664.36 67.0316L1666.47 94.5509L1660.64 94.9971L1659.39 78.645C1659.35 78.0335 1659.32 77.4199 1659.33 76.8043C1659.34 76.1621 1659.37 75.5311 1659.43 74.9114L1659.19 74.9298C1659.02 75.5842 1658.83 76.2274 1658.61 76.8593C1658.39 77.4646 1658.16 78.0709 1657.91 78.6783L1649.72 95.8344L1643.77 96.2897L1641.67 68.7703L1647.49 68.3242L1648.72 84.3572C1648.76 84.9687 1648.77 85.6099 1648.74 86.2807C1648.74 86.923 1648.72 87.5795 1648.69 88.2503L1648.89 88.235C1649.08 87.5786 1649.29 86.9344 1649.51 86.3025C1649.75 85.6685 1650.01 85.0601 1650.29 84.4773L1658.42 67.4869L1664.36 67.0316ZM1692.19 64.899L1694.3 92.4184L1688.2 92.8859L1686.42 69.634L1682.79 69.9121C1682.02 69.9712 1681.46 70.2011 1681.12 70.6019C1680.77 71.0026 1680.61 71.6172 1680.62 72.4455C1680.61 74.4519 1680.56 76.2742 1680.47 77.9124C1680.38 79.5506 1680.23 81.0732 1680.02 82.4803C1679.83 83.8587 1679.56 85.1768 1679.2 86.4345C1678.87 87.6636 1678.44 88.8865 1677.92 90.1033C1677.39 91.2935 1676.77 92.5317 1676.04 93.8179L1670.89 94.2121C1671.99 91.8011 1672.82 89.3706 1673.38 86.9205C1673.94 84.4439 1674.32 81.954 1674.53 79.4507C1674.74 76.9208 1674.84 74.399 1674.84 71.8854C1674.84 70.2001 1675.35 68.7972 1676.36 67.6768C1677.4 66.5542 1678.82 65.9237 1680.63 65.7852L1692.19 64.899ZM1674.82 93.6304L1674.82 99.9686L1670.43 100.305L1669.95 94.0032L1674.82 93.6304ZM1697.56 87.8759L1697.89 92.1433L1669.97 94.2824L1669.65 90.0149L1697.56 87.8759ZM1697.87 91.8642L1698.35 98.1657L1694.01 98.4988L1693.04 92.2339L1697.87 91.8642ZM1712.58 63.3367C1713.09 63.298 1713.54 63.4106 1713.93 63.6745C1714.36 63.9365 1714.65 64.3016 1714.82 64.77L1724.78 90.0829L1718.56 90.5596L1711.39 70.7697C1711.25 70.3259 1711.11 69.882 1710.97 69.4382C1710.82 68.9677 1710.7 68.5228 1710.58 68.1035L1709.51 68.186C1709.46 68.6176 1709.4 69.0767 1709.33 69.5634C1709.29 70.0216 1709.21 70.4817 1709.12 70.9439L1705.04 91.5955L1698.78 92.0753L1704.81 65.537C1704.91 65.0482 1705.13 64.6434 1705.48 64.3224C1705.86 63.9993 1706.3 63.8185 1706.8 63.7798L1712.58 63.3367ZM1718.01 78.6868L1718.36 83.2734L1704.09 84.3673L1703.74 79.7808L1718.01 78.6868ZM1756.9 59.9413L1759.01 87.4606L1753.19 87.9068L1751.93 71.5547C1751.89 70.9432 1751.87 70.3296 1751.87 69.714C1751.88 69.0718 1751.91 68.4408 1751.97 67.8211L1751.73 67.8395C1751.56 68.4939 1751.37 69.1371 1751.15 69.769C1750.93 70.3743 1750.7 70.9806 1750.45 71.588L1742.26 88.7441L1736.32 89.1994L1734.21 61.68L1740.03 61.2339L1741.26 77.2669C1741.31 77.8784 1741.31 78.5196 1741.29 79.1904C1741.28 79.8327 1741.26 80.4892 1741.24 81.16L1741.44 81.1447C1741.63 80.4883 1741.83 79.8441 1742.05 79.2122C1742.29 78.5782 1742.56 77.9698 1742.83 77.387L1750.96 60.3966L1756.9 59.9413ZM1783.46 57.9065L1783.79 62.174L1774.69 62.8707C1773.12 62.9909 1772.34 63.8261 1772.36 65.3764C1772.33 67.1435 1772.31 68.7766 1772.29 70.2758C1772.27 71.7484 1772.21 73.1033 1772.12 74.3407C1772.03 75.578 1771.9 76.7243 1771.74 77.7796C1771.61 78.8063 1771.4 79.7583 1771.12 80.6356C1770.68 82.3003 1770.06 83.6316 1769.26 84.6294C1768.45 85.6272 1767.48 86.3438 1766.33 86.7791C1765.19 87.1878 1763.89 87.3674 1762.44 87.3178L1761.64 82.6452C1762.51 82.3919 1763.26 82.0536 1763.89 81.6305C1764.53 81.1807 1765.01 80.4486 1765.33 79.4343C1765.52 78.831 1765.69 78.2032 1765.83 77.5508C1765.96 76.8718 1766.07 76.1417 1766.14 75.3604C1766.24 74.5506 1766.3 73.6496 1766.34 72.6577C1766.39 71.6637 1766.43 70.5644 1766.44 69.3598C1766.46 68.1286 1766.47 66.7501 1766.49 65.2243C1766.47 61.2136 1768.45 59.0565 1772.41 58.7529L1783.46 57.9065ZM1784.06 57.8607L1786.17 85.38L1780.06 85.8475L1777.95 58.3282L1784.06 57.8607ZM1812.48 55.6829L1814.59 83.2023L1808.77 83.6484L1807.51 67.2964C1807.47 66.6848 1807.45 66.0712 1807.45 65.4556C1807.46 64.8134 1807.49 64.1825 1807.55 63.5628L1807.31 63.5811C1807.14 64.2355 1806.95 64.8787 1806.73 65.5106C1806.51 66.1159 1806.28 66.7223 1806.03 67.3296L1797.84 84.4857L1791.89 84.941L1789.79 57.4217L1795.61 56.9755L1796.84 73.0085C1796.88 73.6201 1796.89 74.2613 1796.86 74.9321C1796.86 75.5743 1796.84 76.2308 1796.82 76.9016L1797.01 76.8864C1797.2 76.2299 1797.41 75.5857 1797.63 74.9538C1797.87 74.3198 1798.14 73.7115 1798.41 73.1287L1806.54 56.1382L1812.48 55.6829ZM1848.92 52.8909L1851.03 80.4102L1844.93 80.8777L1843.15 57.6259L1839.52 57.904C1838.75 57.963 1838.19 58.193 1837.84 58.5937C1837.5 58.9945 1837.33 59.609 1837.34 60.4374C1837.34 62.4437 1837.29 64.266 1837.2 65.9042C1837.11 67.5424 1836.96 69.0651 1836.75 70.4721C1836.56 71.8506 1836.29 73.1687 1835.93 74.4264C1835.59 75.6555 1835.17 76.8784 1834.65 78.0951C1834.12 79.2853 1833.49 80.5235 1832.76 81.8097L1827.62 82.2039C1828.72 79.7929 1829.55 77.3624 1830.11 74.9124C1830.67 72.4358 1831.05 69.9458 1831.26 67.4425C1831.47 64.9126 1831.57 62.3909 1831.56 59.8772C1831.57 58.192 1832.08 56.7891 1833.09 55.6686C1834.12 54.5461 1835.55 53.9156 1837.36 53.777L1848.92 52.8909ZM1831.55 81.6222L1831.55 87.9604L1827.16 88.2966L1826.68 81.995L1831.55 81.6222ZM1854.29 75.8677L1854.62 80.1352L1826.7 82.2742L1826.37 78.0067L1854.29 75.8677ZM1854.6 79.856L1855.08 86.1575L1850.73 86.4906L1849.77 80.2258L1854.6 79.856ZM1869.31 51.3285C1869.82 51.2898 1870.27 51.4024 1870.66 51.6664C1871.08 51.9283 1871.38 52.2935 1871.55 52.7619L1881.51 78.0748L1875.29 78.5515L1868.12 58.7616C1867.98 58.3177 1867.84 57.8739 1867.69 57.43C1867.55 56.9596 1867.42 56.5147 1867.31 56.0954L1866.23 56.1779C1866.19 56.6094 1866.13 57.0685 1866.06 57.5553C1866.01 58.0134 1865.94 58.4736 1865.84 58.9358L1861.77 79.5874L1855.51 80.0671L1861.54 53.5289C1861.63 53.0401 1861.86 52.6352 1862.21 52.3142C1862.58 51.9912 1863.02 51.8103 1863.53 51.7716L1869.31 51.3285ZM1874.74 66.6787L1875.09 71.2652L1860.81 72.3592L1860.46 67.7726L1874.74 66.6787Z" fill="black"/>
<circle cx="1921.63" cy="58.9544" r="7" transform="rotate(-4.38131 1921.63 58.9544)" stroke="#5759DF" stroke-width="6"/>
</svg>
