<svg width="25" height="25" viewBox="0 0 25 25" fill="none" xmlns="http://www.w3.org/2000/svg">
<path fill-rule="evenodd" clip-rule="evenodd" d="M22.176 8.67749C22.4594 8.96099 22.6186 9.34543 22.6186 9.74629C22.6186 10.1471 22.4594 10.5316 22.176 10.8151L10.8451 22.146C10.6953 22.2958 10.5175 22.4146 10.3219 22.4957C10.1262 22.5767 9.9165 22.6184 9.70471 22.6184C9.49292 22.6184 9.28321 22.5767 9.08755 22.4957C8.89188 22.4146 8.7141 22.2958 8.56436 22.146L2.93467 16.5173C2.79029 16.3779 2.67512 16.2111 2.59589 16.0266C2.51666 15.8422 2.47496 15.6438 2.47322 15.4431C2.47147 15.2424 2.50972 15.0433 2.58573 14.8575C2.66174 14.6717 2.774 14.5029 2.91594 14.361C3.05788 14.2191 3.22666 14.1068 3.41245 14.0308C3.59824 13.9548 3.7973 13.9165 3.99803 13.9183C4.19875 13.92 4.39712 13.9617 4.58156 14.041C4.766 14.1202 4.93281 14.2354 5.07226 14.3797L9.70421 19.0117L20.0374 8.67749C20.1778 8.53701 20.3445 8.42557 20.528 8.34954C20.7114 8.27351 20.9081 8.23438 21.1067 8.23438C21.3053 8.23438 21.502 8.27351 21.6854 8.34954C21.8689 8.42557 22.0356 8.53701 22.176 8.67749Z" fill="black"/>
</svg>
