<svg width="21" height="20" viewBox="0 0 21 20" fill="none" xmlns="http://www.w3.org/2000/svg">
<path d="M2.15224 19.1486C1.59794 19.1486 1.12359 18.9514 0.729196 18.557C0.334802 18.1626 0.137269 17.6879 0.136597 17.133V6.04693C0.136597 5.49262 0.33413 5.01828 0.729196 4.62388C1.12426 4.22949 1.59861 4.03196 2.15224 4.03128H6.18352V2.01564C6.18352 1.46134 6.38106 0.986993 6.77612 0.592599C7.17119 0.198205 7.64554 0.000671881 8.19917 0H12.2305C12.7848 0 13.2594 0.197533 13.6545 0.592599C14.0496 0.987665 14.2468 1.46201 14.2461 2.01564V4.03128H18.2774C18.8317 4.03128 19.3064 4.22882 19.7014 4.62388C20.0965 5.01895 20.2937 5.4933 20.293 6.04693V17.133C20.293 17.6873 20.0958 18.1619 19.7014 18.557C19.307 18.9521 18.8324 19.1493 18.2774 19.1486H2.15224ZM8.19917 4.03128H12.2305V2.01564H8.19917V4.03128ZM18.2774 13.1017H13.2383V15.1173H7.19135V13.1017H2.15224V17.133H18.2774V13.1017ZM9.20699 13.1017H11.2226V11.086H9.20699V13.1017ZM2.15224 11.086H7.19135V9.07039H13.2383V11.086H18.2774V6.04693H2.15224V11.086Z" fill="black"/>
</svg>
