<svg width="40" height="40" viewBox="0 0 40 40" fill="none" xmlns="http://www.w3.org/2000/svg">
<path d="M20.99 38.7648L20.97 38.7681L20.8516 38.8264L20.8183 38.8331L20.795 38.8264L20.6766 38.7664C20.6589 38.762 20.6455 38.7653 20.6366 38.7764L20.63 38.7931L20.6016 39.5064L20.61 39.5398L20.6266 39.5614L20.8 39.6848L20.825 39.6914L20.845 39.6848L21.0183 39.5614L21.0383 39.5348L21.045 39.5064L21.0166 38.7948C21.0122 38.777 21.0033 38.767 20.99 38.7648ZM21.43 38.5764L21.4066 38.5798L21.1 38.7348L21.0833 38.7514L21.0783 38.7698L21.1083 39.4864L21.1166 39.5064L21.13 39.5198L21.465 39.6731C21.4861 39.6787 21.5022 39.6742 21.5133 39.6598L21.52 39.6364L21.4633 38.6131C21.4578 38.592 21.4466 38.5798 21.43 38.5764ZM20.2383 38.5798C20.231 38.5753 20.2222 38.5739 20.2138 38.5757C20.2054 38.5776 20.1981 38.5826 20.1933 38.5898L20.1833 38.6131L20.1266 39.6364C20.1278 39.6564 20.1372 39.6698 20.155 39.6764L20.18 39.6731L20.515 39.5181L20.5316 39.5048L20.5366 39.4864L20.5666 38.7698L20.5616 38.7498L20.545 38.7331L20.2383 38.5798Z" fill="#595AE3"/>
<path d="M15.1784 9.08071C16.175 6.16405 20.205 6.07571 21.3867 8.81571L21.4867 9.08238L22.8317 13.0157C23.1399 13.9178 23.638 14.7432 24.2924 15.4364C24.9468 16.1296 25.7422 16.6744 26.625 17.034L26.9867 17.169L30.92 18.5124C33.8367 19.509 33.925 23.539 31.1867 24.7207L30.92 24.8207L26.9867 26.1657C26.0843 26.4737 25.2585 26.9718 24.5651 27.6261C23.8716 28.2805 23.3265 29.0761 22.9667 29.959L22.8317 30.319L21.4884 34.254C20.4917 37.1707 16.4617 37.259 15.2817 34.5207L15.1784 34.254L13.835 30.3207C13.527 29.4184 13.029 28.5926 12.3746 27.8991C11.7202 27.2056 10.9247 26.6605 10.0417 26.3007L9.68169 26.1657L5.74835 24.8224C2.83002 23.8257 2.74169 19.7957 5.48169 18.6157L5.74835 18.5124L9.68169 17.169C10.5837 16.8608 11.4092 16.3627 12.1024 15.7083C12.7956 15.054 13.3404 14.2585 13.7 13.3757L13.835 13.0157L15.1784 9.08071ZM31.6667 3.33405C31.9785 3.33405 32.284 3.42151 32.5486 3.5865C32.8132 3.75149 33.0262 3.98738 33.1634 4.26738L33.2434 4.46238L33.8267 6.17238L35.5384 6.75571C35.8508 6.86187 36.1247 7.0584 36.3254 7.3204C36.5261 7.5824 36.6444 7.89808 36.6655 8.22741C36.6865 8.55675 36.6094 8.88493 36.4437 9.17036C36.2781 9.45579 36.0314 9.68561 35.735 9.83071L35.5384 9.91071L33.8284 10.494L33.245 12.2057C33.1387 12.5181 32.942 12.7919 32.6799 12.9924C32.4178 13.1929 32.1021 13.311 31.7728 13.3319C31.4434 13.3528 31.1153 13.2755 30.83 13.1097C30.5447 12.9439 30.315 12.6972 30.17 12.4007L30.09 12.2057L29.5067 10.4957L27.795 9.91238C27.4826 9.80622 27.2086 9.60969 27.008 9.34769C26.8073 9.08569 26.689 8.77002 26.6679 8.44068C26.6468 8.11134 26.724 7.78316 26.8897 7.49773C27.0553 7.21231 27.302 6.98248 27.5984 6.83738L27.795 6.75738L29.505 6.17405L30.0884 4.46238C30.2007 4.13309 30.4134 3.84723 30.6964 3.64488C30.9795 3.44253 31.3187 3.33384 31.6667 3.33405Z" fill="#595AE3"/>
</svg>
