<svg width="22" height="21" viewBox="0 0 22 21" fill="none" xmlns="http://www.w3.org/2000/svg">
<path d="M15.3472 13.3294L14.7911 13.8831C14.7911 13.8831 13.4674 15.1982 9.85576 11.6073C6.24412 8.01648 7.56777 6.70137 7.56777 6.70137L7.91733 6.35182C8.78143 5.49383 8.86332 4.11517 8.10921 3.10807L6.56922 1.05108C5.63545 -0.195579 3.83269 -0.360578 2.76325 0.702748L0.844374 2.6094C0.315156 3.1374 -0.0392869 3.81939 0.00349064 4.57717C0.11349 6.51682 0.991039 10.6882 5.88479 15.5551C11.0755 20.7153 15.9461 20.9206 17.937 20.7348C18.5677 20.6762 19.1153 20.3559 19.5565 19.916L21.292 18.1902C22.4653 17.0254 22.1353 15.0271 20.6345 14.2119L18.3 12.942C17.3149 12.4079 16.1172 12.5643 15.3472 13.3294Z" fill="white"/>
</svg>
