<svg width="40" height="40" viewBox="0 0 40 40" fill="none" xmlns="http://www.w3.org/2000/svg">
<path d="M6.41688 20.0634C13.3951 17.023 18.0488 15.0182 20.3781 14.049C27.0269 11.2839 28.4075 10.8038 29.3079 10.7878C29.5074 10.7838 29.9489 10.833 30.2362 11.0671C30.4783 11.2626 30.5448 11.5286 30.5767 11.7148C30.6086 11.901 30.6485 12.3253 30.6166 12.6565C30.2575 16.4431 28.6974 25.6295 27.9034 29.8696C27.5682 31.6625 26.9085 32.2637 26.2675 32.3235C24.8776 32.4512 23.8229 31.4058 22.4769 30.5227C20.3688 29.1408 19.1784 28.2803 17.1329 26.9329C14.7694 25.3755 16.3016 24.519 17.6489 23.1198C18.0014 22.754 24.1261 17.1826 24.2458 16.6772C24.2591 16.6133 24.2737 16.3779 24.1341 16.2542C23.9944 16.1292 23.7883 16.1717 23.638 16.2063C23.4261 16.2542 20.0602 18.4789 13.5405 22.8804C12.5837 23.5365 11.7183 23.8562 10.9443 23.8393C10.0891 23.8207 8.44383 23.3565 7.22287 22.9588C5.72261 22.4707 4.53091 22.214 4.63465 21.3854C4.68874 20.9545 5.28282 20.5138 6.41688 20.0634Z" fill="white"/>
</svg>
