<svg width="31" height="30" viewBox="0 0 31 30" fill="none" xmlns="http://www.w3.org/2000/svg">
<g clip-path="url(#clip0_1095_7566)">
<path d="M20.104 0H10.895C2.49121 0 0.499023 1.99219 0.499023 10.3959V19.605C0.499023 28.0088 2.49121 30.0009 10.895 30.0009H20.104C28.5078 30.0009 30.5 28.0088 30.5 19.605V10.3959C30.5 1.99219 28.4881 0 20.104 0ZM24.7184 21.4012H22.5406C21.7156 21.4012 21.4615 20.7469 19.9775 19.2431C18.6884 17.9934 18.1175 17.8275 17.7996 17.8275C17.3506 17.8275 17.2231 17.9541 17.2231 18.57V20.5378C17.2231 21.0656 17.0571 21.3825 15.6603 21.3825C13.3503 21.3825 10.7871 19.9856 8.98996 17.3831C6.27965 13.5694 5.53809 10.7128 5.53809 10.1222C5.53809 9.80437 5.66465 9.50719 6.27496 9.50719H8.45746C9.00965 9.50719 9.21965 9.76125 9.43434 10.3519C10.5134 13.4672 12.3106 16.1962 13.0521 16.1962C13.3259 16.1962 13.4525 16.0697 13.4525 15.3713V12.1537C13.369 10.6697 12.5881 10.5422 12.5881 10.0153C12.5881 9.76125 12.7981 9.50719 13.1346 9.50719H16.5668C17.0309 9.50719 17.2015 9.76125 17.2015 10.3078V14.6484C17.2015 15.1172 17.4115 15.2831 17.5381 15.2831C17.8118 15.2831 18.0462 15.1172 18.5534 14.6091C20.1209 12.8512 21.244 10.1409 21.244 10.1409C21.3903 9.82313 21.6443 9.52594 22.1965 9.52594H24.379C25.0334 9.52594 25.1796 9.8625 25.0334 10.3313C24.7596 11.6006 22.0887 15.3703 22.0887 15.3703C21.859 15.7509 21.7709 15.9169 22.0887 16.3416C22.3231 16.6594 23.0853 17.3184 23.5925 17.9091C24.5253 18.9684 25.2425 19.8572 25.4337 20.4722C25.6484 21.0825 25.3315 21.4003 24.7156 21.4003L24.7184 21.4012Z" fill="#1576FF"/>
</g>
<defs>
<clipPath id="clip0_1095_7566">
<rect width="30" height="30" fill="white" transform="translate(0.5)"/>
</clipPath>
</defs>
</svg>
