<svg width="30" height="30" viewBox="0 0 30 30" fill="none" xmlns="http://www.w3.org/2000/svg">
<g clip-path="url(#clip0_1095_7562)">
<path d="M14.9994 1.78735e-07C17.3066 0.000801171 19.5825 0.533824 21.6502 1.55761C23.7178 2.5814 25.5214 4.06835 26.9207 5.90282C28.32 7.73729 29.2772 9.86982 29.7179 12.1345C30.1587 14.3993 30.0711 16.7352 29.4619 18.9605C28.8527 21.1858 27.7384 23.2407 26.2056 24.9651C24.6728 26.6896 22.7629 28.0373 20.6244 28.9033C18.4858 29.7693 16.1764 30.1303 13.8756 29.9582C11.5748 29.7862 9.3447 29.0857 7.35876 27.9112L1.23314 29.9513C1.0681 30.006 0.891098 30.0138 0.721902 29.9737C0.552707 29.9336 0.397988 29.8473 0.275039 29.7243C0.15209 29.6014 0.0657562 29.4467 0.0256861 29.2775C-0.0143841 29.1083 -0.00661132 28.9313 0.0481357 28.7663L2.09001 22.6425C0.741241 20.3646 0.0193236 17.7704 -0.0024234 15.1232C-0.0241704 12.4761 0.655028 9.87031 1.96619 7.57059C3.27736 5.27086 5.17378 3.35909 7.46286 2.02943C9.75194 0.699772 12.3521 -0.000408426 14.9994 1.78735e-07ZM9.77564 7.5075C9.58487 7.51392 9.39779 7.56187 9.22746 7.64801C9.05712 7.73415 8.90762 7.8564 8.78939 8.00625C8.45189 8.40187 7.49939 9.36563 7.49939 11.3194C7.49939 13.2769 8.82126 15.1706 9.00689 15.4369C9.19064 15.6956 11.6094 19.7119 15.3125 21.4369C16 21.7556 16.7 22.0344 17.4125 22.2731C18.2975 22.5731 19.1038 22.5337 19.7413 22.4325C20.4519 22.32 21.9238 21.4706 22.2331 20.5388C22.5388 19.6144 22.5388 18.8175 22.445 18.6506C22.3531 18.4856 22.1075 18.3844 21.7363 18.1819C21.3688 17.985 19.5519 17.0231 19.2144 16.8938C18.8769 16.7569 18.6294 16.695 18.3838 17.0906C18.1363 17.49 17.4331 18.3862 17.2156 18.6506C17.0038 18.9112 16.7844 18.9487 16.4188 18.75C16.0475 18.5531 14.8606 18.1313 13.4488 16.7738C12.3519 15.7219 11.6113 14.415 11.3975 14.0194C11.18 13.62 11.3731 13.4081 11.5569 13.2075C11.7256 13.0312 11.9281 12.7463 12.1119 12.5119C12.2938 12.2831 12.3594 12.1181 12.4831 11.85C12.6031 11.5856 12.5413 11.3512 12.4494 11.1544C12.3575 10.9575 11.6188 8.99438 11.3113 8.1975C11.0113 7.42313 10.7056 7.53187 10.4806 7.51687C10.2669 7.5075 10.0213 7.5075 9.77564 7.5075Z" fill="#61D66A"/>
</g>
<defs>
<clipPath id="clip0_1095_7562">
<rect width="30" height="30" fill="white"/>
</clipPath>
</defs>
</svg>
