<svg width="259" height="446" viewBox="0 0 259 446" fill="none" xmlns="http://www.w3.org/2000/svg">
<path d="M93.6406 363.778H249.937V466H-72.2853V393.407L94.3814 197.111C122.53 163.531 136.604 131.432 136.604 100.815C136.604 84.5185 131.418 71.679 121.048 62.2963C111.171 52.9136 98.332 48.2223 82.5295 48.2223C67.2209 48.2223 54.6283 52.9136 44.7517 62.2963C35.369 71.1852 29.9369 84.0247 28.4554 100.815H-77.4705C-77.4705 56.8642 -61.4211 20.321 -29.3223 -8.81479C3.7641 -37.9506 43.5172 -52.5185 89.9369 -52.5185C137.838 -52.5185 177.838 -37.7037 209.937 -8.07406C242.529 21.5556 258.826 57.605 258.826 100.074C258.826 122.296 254.134 144.272 244.752 166C234.381 190.198 224.999 207.728 216.604 218.593C207.715 231.432 195.863 246.247 181.048 263.037L93.6406 363.778Z" fill="url(#paint0_linear_334_6467)"/>
<defs>
<linearGradient id="paint0_linear_334_6467" x1="32.5" y1="-125" x2="357.21" y2="607.907" gradientUnits="userSpaceOnUse">
<stop offset="0.176382" stop-color="#DEE1E6" stop-opacity="0.57"/>
<stop offset="0.336882" stop-color="#D7DADE" stop-opacity="0.25"/>
<stop offset="1" stop-color="#F5F7FA" stop-opacity="0.24"/>
</linearGradient>
</defs>
</svg>
