<svg width="271" height="446" viewBox="0 0 271 446" fill="none" xmlns="http://www.w3.org/2000/svg">
<path d="M81.4184 272.407H41.4184V170.185H81.4184C98.7024 170.185 112.776 165.741 123.641 156.852C134.999 147.469 140.678 134.383 140.678 117.593C140.678 101.79 135.739 89.4445 125.863 80.5556C115.986 71.6667 102.9 67.2223 86.6036 67.2223C56.974 67.2223 38.9493 82.284 32.5295 112.407H-73.3964C-71.4211 70.4321 -54.631 35.6173 -23.026 7.96297C9.07274 -19.6913 48.0851 -33.5185 94.011 -33.5185C141.912 -33.5185 181.912 -19.1975 214.011 9.44448C246.604 38.0864 262.9 71.6667 262.9 110.185C262.9 157.593 240.678 194.136 196.233 219.815C245.616 246.481 270.307 286.728 270.307 340.556C270.307 384.506 255.492 421.049 225.863 450.185C196.233 478.333 154.258 492.407 99.9369 492.407C45.6159 492.407 2.40607 478.827 -29.6927 451.667C-61.7915 424.506 -78.8285 388.457 -80.8038 343.519H25.1221C30.0604 374.63 51.7888 390.185 90.3073 390.185C108.579 390.185 122.653 385 132.53 374.63C142.9 363.765 148.085 349.444 148.085 331.667C148.085 292.161 125.863 272.407 81.4184 272.407Z" fill="url(#paint0_linear_334_6471)"/>
<defs>
<linearGradient id="paint0_linear_334_6471" x1="42.5" y1="-106" x2="367.21" y2="626.907" gradientUnits="userSpaceOnUse">
<stop offset="0.150032" stop-color="#DEE1E6" stop-opacity="0.57"/>
<stop offset="0.336882" stop-color="#D7DADE" stop-opacity="0.25"/>
<stop offset="1" stop-color="#F5F7FA" stop-opacity="0.24"/>
</linearGradient>
</defs>
</svg>
